<?xml version="1.0" encoding="UTF-8" standalone="no"?>
<svg
   xmlns:dc="http://purl.org/dc/elements/1.1/"
   xmlns:cc="http://creativecommons.org/ns#"
   xmlns:rdf="http://www.w3.org/1999/02/22-rdf-syntax-ns#"
   xmlns:svg="http://www.w3.org/2000/svg"
   xmlns="http://www.w3.org/2000/svg"
   viewBox="0 0 1600 2400"
   height="2400"
   width="1600"
   xml:space="preserve"
   id="svg2"
   version="1.1"><metadata
     id="metadata8"><rdf:RDF><cc:Work
         rdf:about=""><dc:format>image/svg+xml</dc:format><dc:type
           rdf:resource="http://purl.org/dc/dcmitype/StillImage" /></cc:Work></rdf:RDF></metadata><defs
     id="defs6"><clipPath
       id="clipPath60"
       clipPathUnits="userSpaceOnUse"><path
         id="path58"
         d="m 6306.08,3821.3 h -300.25 c -17.25,0 -31.24,14 -31.24,31.3 0,17.2 13.99,31.2 31.24,31.2 h 40.34 181.91 c 8.37,0 15.16,6.8 15.16,15.2 0,8.4 -6.79,15.1 -15.16,15.1 h -107.07 c -17.25,0 -31.23,14 -31.23,31.3 0,17.2 13.98,31.2 31.23,31.2 h 32.73 c 8.38,0 15.16,6.8 15.16,15.2 0,8.3 -6.78,15.1 -15.16,15.1 h -181.91 -92.33 c -17.25,0 -31.24,14 -31.24,31.3 0,17.2 13.99,31.2 31.24,31.2 h 407.01 c 17.25,0 31.23,-14 31.23,-31.2 0,-17.3 -13.98,-31.3 -31.23,-31.3 h -18.84 -62.47 c -8.38,0 -15.16,-6.8 -15.16,-15.1 0,-8.4 6.78,-15.2 15.16,-15.2 h 62.47 106.12 c 17.25,0 31.23,-14 31.23,-31.2 0,-17.3 -13.98,-31.3 -31.23,-31.3 H 6342 6279.53 c -8.37,0 -15.16,-6.7 -15.16,-15.1 0,-8.4 6.79,-15.2 15.16,-15.2 h 26.55 c 17.25,0 31.24,-14 31.24,-31.2 0,-17.3 -13.99,-31.3 -31.24,-31.3" /></clipPath></defs><g
     transform="matrix(1.3333333,0,0,-1.3333333,0,2400)"
     id="g10"><g
       transform="scale(0.1)"
       id="g12"><g
         transform="scale(1.10429)"
         id="g14"><path
           id="path16"
           style="fill:#48bbc6;fill-opacity:0;fill-rule:nonzero;stroke:none"
           d="M 0,0 V 16300 H 10866.7 V 0 H 0" /></g><path
         id="path18"
         style="fill:#3d9eab;fill-opacity:1;fill-rule:nonzero;stroke:none"
         d="M 8787.87,937.199 C 8787.87,856.402 8722.44,791 8641.72,791 H 3277.66 c -80.73,0 -146.16,65.402 -146.16,146.199 0,80.701 65.43,146.101 146.16,146.101 h 5364.06 c 80.72,0 146.15,-65.4 146.15,-146.101" /><path
         id="path20"
         style="fill:#131916;fill-opacity:1;fill-rule:nonzero;stroke:none"
         d="m 6190.98,3136.4 c -66.64,130.4 -214.04,199.6 -356.14,164.5 -54.23,-13.4 -1038.31,-139.7 -1038.31,-139.7 l 539.48,-334.7 521.18,103.8 c 15.81,12.9 38.1,14.3 55.46,3.6 l 606.85,-1283.4 340.72,177.1 -669.24,1308.8" /><path
         id="path22"
         style="fill:#f6a78b;fill-opacity:1;fill-rule:nonzero;stroke:none"
         d="m 3999.24,5668.9 -45.98,-56.7 c -69,-85.1 -65.88,-202.5 -1.54,-293 29.06,-40.9 89.4,-42.2 120.98,-3.3 l 253.26,312.5 c 34.27,42.3 14.57,106.2 -37.76,121.2 -106.49,30.4 -222.04,1.9 -288.96,-80.7" /><path
         id="path24"
         style="fill:#28637c;fill-opacity:1;fill-rule:nonzero;stroke:none"
         d="m 5573.24,4449.8 v -511 c 0,-225.7 183.7,-409.4 409.49,-409.4 h 386.3 v -245.8 h -386.3 c -361.3,0 -655.23,293.9 -655.23,655.2 0,206.5 96.07,390.8 245.74,511" /><path
         id="path26"
         style="fill:#f6a78b;fill-opacity:1;fill-rule:nonzero;stroke:none"
         d="m 6454.84,3548.4 h 76.7 c 147.32,0 266.74,-119.4 266.74,-266.7 h -610.17 c 0,147.3 119.42,266.7 266.73,266.7" /><path
         id="path28"
         style="fill:#bebdbb;fill-opacity:1;fill-rule:nonzero;stroke:none"
         d="m 5695.18,950.602 h 0.56 c 16.32,0 29.64,13.097 29.98,29.398 l 39.35,1904.7 -56.39,1.1 -19.88,-969.9 c -1.19,-58.1 -86,-62.8 -93.7,-5.2 l -111.8,836.7 -55.91,-7.5 238.07,-1763.298 c 2,-14.899 14.7,-26 29.72,-26" /><path
         id="path30"
         style="fill:#bebdbb;fill-opacity:1;fill-rule:nonzero;stroke:none"
         d="m 4584.43,975.199 317.06,1763.501 -55.53,9.9 -146.67,-824.9 c -10.71,-60.2 -99.64,-51.4 -98.39,9.7 l 19.5,951.3 -56.4,1.1 -39.32,-1904.698 c -0.35,-16.704 13.11,-30.5 29.82,-30.5 h 0.56 c 14.44,0 26.81,10.398 29.37,24.597" /><path
         id="path32"
         style="fill:#bebdbb;fill-opacity:1;fill-rule:nonzero;stroke:none"
         d="m 5068.94,4298.5 v -495.3 c 0,-468.5 379.81,-848.3 848.33,-848.3 h 8.57 c -155.43,-284.7 -458.5,-477.2 -806.31,-474.6 -500.82,3.7 -903.08,409.2 -903.08,910 0.01,483.3 376.71,878.5 852.49,908.2" /><path
         id="path34"
         style="fill:#28637c;fill-opacity:1;fill-rule:nonzero;stroke:none"
         d="m 4506.63,4495.3 85.25,70.1 c 29.69,14.6 60.45,26.9 92.18,36.3 46.31,13.6 91.65,31.5 139.74,31.5 L 5107.94,4531 c 26.21,1.1 50.7,1.4 73.03,0 h 21.59 c 0,0 244.36,-21.1 274.78,-132.6 V 4086.8 2976.1 l -971.55,48.3 v 762.5 l 0.84,708.4" /><path
         id="path36"
         style="fill:#f6a78b;fill-opacity:1;fill-rule:nonzero;stroke:none"
         d="m 5301.45,1050.9 216.57,-56.201 110.92,400.001 -216.57,56.1 -110.92,-399.9" /><path
         id="path38"
         style="fill:#6c443a;fill-opacity:1;fill-rule:nonzero;stroke:none"
         d="m 5415.97,1073.1 c 107.47,0 194.58,51 194.58,113.8 0,2.9 -0.25,5.8 -0.63,8.7 h 241.64 c 135.3,0 244.99,-109.7 244.99,-244.998 H 5238.3 c 0,63.298 -8.46,83.298 34.78,122.498 165.45,0 82.05,0 142.89,0" /><path
         id="path40"
         style="fill:#172f31;fill-opacity:1;fill-rule:nonzero;stroke:none"
         d="m 5326.66,1300.8 376.02,-78 308.21,1437.3 c 30.69,143.1 -39.81,289.9 -172.14,352.5 -50.51,23.9 -106.59,37 -164.9,37 H 4546.82 v -3.4 c 0,-185 150,-335 335.03,-335 h 740.05 c 20.4,0 38.6,-13 45.3,-32.2 L 5326.66,1300.8" /><path
         id="path42"
         style="fill:#204c57;fill-opacity:1;fill-rule:nonzero;stroke:none"
         d="m 5488.48,4273.3 v -757.2 h -982.69 v 594.5 h 2.88 c 155.38,0 279.67,129.1 273.8,284.4 l -4.77,126.1 -21.49,61 -1.1,3.2 733.37,-312" /><path
         id="path44"
         style="fill:#28637c;fill-opacity:1;fill-rule:nonzero;stroke:none"
         d="m 4733.22,4383.5 1.92,2.6 -142.78,179.5 -8.93,-4.4 c -41.63,-19.4 -79.74,-45.7 -112.39,-78 -131.73,-130.4 -358.86,-150.8 -515.13,-37.1 -178.05,129.6 -217.52,379.8 -87.98,557.8 l 233.25,320.6 -215.17,156.6 -233.24,-320.6 c -224.3,-308.3 -144.51,-746.5 182.48,-953.9 297.21,-188.6 690.9,-107.7 897.97,176.9" /><path
         id="path46"
         style="fill:#193336;fill-opacity:1;fill-rule:nonzero;stroke:none"
         d="m 5342.29,4069.7 c 0,-24.8 20.05,-44.8 44.8,-44.8 24.74,0 44.8,20 44.8,44.8 0,24.7 -20.06,44.8 -44.8,44.8 -24.75,0 -44.8,-20.1 -44.8,-44.8" /><path
         id="path48"
         style="fill:#193336;fill-opacity:1;fill-rule:nonzero;stroke:none"
         d="m 5342.29,3922.2 c 0,-24.7 20.05,-44.8 44.8,-44.8 24.74,0 44.8,20.1 44.8,44.8 0,24.8 -20.06,44.8 -44.8,44.8 -24.75,0 -44.8,-20 -44.8,-44.8" /><path
         id="path50"
         style="fill:#193336;fill-opacity:1;fill-rule:nonzero;stroke:none"
         d="m 5342.29,3774.8 c 0,-24.7 20.05,-44.8 44.8,-44.8 24.74,0 44.8,20.1 44.8,44.8 0,24.7 -20.06,44.8 -44.8,44.8 -24.75,0 -44.8,-20.1 -44.8,-44.8" /><path
         id="path52"
         style="fill:#f6a78b;fill-opacity:1;fill-rule:nonzero;stroke:none"
         d="m 5387.4,4663.6 189.88,-194.9 h -385.07 z" /><g
         id="g54"><g
           clip-path="url(#clipPath60)"
           id="g56"><path
             id="path62"
             style="fill:#96dcdd;fill-opacity:1;fill-rule:nonzero;stroke:none"
             d="m 5848.26,3821.3 h 556.758 v 248.098 H 5848.26 Z" /></g></g><path
         id="path64"
         style="fill:#96dcdd;fill-opacity:1;fill-rule:nonzero;stroke:none"
         d="m 6343.7,3685.5 h -66.61 c -17.25,0 -31.24,13.9 -31.24,31.2 0,17.3 13.99,31.2 31.24,31.2 h 66.61 c 17.25,0 31.24,-13.9 31.24,-31.2 0,-17.3 -13.99,-31.2 -31.24,-31.2" /><path
         id="path66"
         style="fill:#ef3525;fill-opacity:1;fill-rule:nonzero;stroke:none"
         d="m 6103.82,3482.3 c 0,55.1 44.81,99.9 99.89,99.9 h 22.56 v -100.3 c 0,-36.2 9.67,-70.2 26.5,-99.5 h -49.06 c -55.08,0 -99.89,44.8 -99.89,99.9 z m -57.61,0 c 0,-86.8 70.65,-157.5 157.5,-157.5 h 98.72 c 34.13,-27 77.22,-43.1 124.1,-43.1 110.6,0 200.26,89.6 200.26,200.2 v 178.8 h -400.52 v -20.9 h -22.56 c -86.85,0 -157.5,-70.6 -157.5,-157.5" /><path
         id="path68"
         style="fill:#f6a78b;fill-opacity:1;fill-rule:nonzero;stroke:none"
         d="M 4685.25,5573.2 H 5733.79 V 4712.7 H 4685.25 v 860.5" /><path
         id="path70"
         style="fill:#3a1e15;fill-opacity:1;fill-rule:nonzero;stroke:none"
         d="m 5510.03,5013.2 c 0,-44.6 33.81,-80.7 75.51,-80.7 41.7,0 75.5,36.1 75.5,80.7 0,44.6 -33.8,80.7 -75.5,80.7 -41.7,0 -75.51,-36.1 -75.51,-80.7" /><path
         id="path72"
         style="fill:#3a1e15;fill-opacity:1;fill-rule:nonzero;stroke:none"
         d="m 5037.2,5013.2 c 0,-44.6 33.81,-80.7 75.51,-80.7 41.7,0 75.5,36.1 75.5,80.7 0,44.6 -33.8,80.7 -75.5,80.7 -41.7,0 -75.51,-36.1 -75.51,-80.7" /><path
         id="path74"
         style="fill:#6c443a;fill-opacity:1;fill-rule:nonzero;stroke:none"
         d="m 5529.71,5325.1 h 111.65 c 29.49,0 53.4,-24.8 53.4,-55.4 h -218.45 c 0,30.6 23.91,55.4 53.4,55.4" /><path
         id="path76"
         style="fill:#6c443a;fill-opacity:1;fill-rule:nonzero;stroke:none"
         d="m 5056.89,5325.1 h 111.64 c 29.49,0 53.4,-24.8 53.4,-55.4 h -218.44 c 0,30.6 23.91,55.4 53.4,55.4" /><path
         id="path78"
         style="fill:#6c443a;fill-opacity:1;fill-rule:nonzero;stroke:none"
         d="m 4723.39,4630.5 0.02,-0.1 h -0.02 z m -57.17,942.7 v -921.9 -2.3 c 0,-138.9 68.22,-269 182.53,-347.9 1.02,-0.7 2.03,-1.4 3.05,-2.1 133.21,-92 291.3,-141.3 453.21,-141.3 h 444.9 l -1.52,1 c -79.48,48.8 -97.13,156.8 -37.33,228.3 l 1.53,1.9 c 24.11,28.8 37.32,65.2 37.32,102.8 v 102.4 42.8 933 3.3 h -33.8 v -833.3 h -289.68 c 0,0 -55.38,5.6 -55.89,0 l -492.71,0.3 h -0.04 c -62.74,-0.3 -113.76,50.4 -113.94,113.2 l -0.19,66.2 v 368.6 l 1.06,0.5 c 61.23,30.8 98.96,94.5 96.49,162.9 -0.17,4.6 -0.36,7.3 0,7.1 l -194.99,114.5" /><path
         id="path80"
         style="fill:#3a1e15;fill-opacity:1;fill-rule:nonzero;stroke:none"
         d="m 5398.8,4748.3 c 0.31,1.3 7.85,2 7.85,2 0,0 7.54,-0.7 7.84,-2 L 5809.81,4647 c -31.82,-124.1 -149.42,-201.2 -262.67,-172.2 -66.62,17.1 -116.86,67.1 -140.49,130.6 -23.64,-63.5 -73.88,-113.5 -140.5,-130.6 -113.25,-29 -230.85,48.1 -262.66,172.2 l 395.31,101.3" /><path
         id="path82"
         style="fill:#3a1e15;fill-opacity:1;fill-rule:nonzero;stroke:none"
         d="m 4955.61,5458.2 h -128.74 c -4.92,0 -9.78,0.2 -14.62,0.5 h 157.97 c -4.84,-0.3 -9.7,-0.5 -14.61,-0.5" /><path
         id="path84"
         style="fill:#3a1e15;fill-opacity:1;fill-rule:nonzero;stroke:none"
         d="m 4699.37,5869.9 c 5.9,4 12,7.8 18.28,11.3 13.79,7.6 28.47,13.9 43.84,18.5 27.73,65.8 85.75,115.6 156.58,132.1 16.51,3.8 33.7,5.9 51.38,5.9 h 12.67 116.07 c 9.12,0 18.1,-0.6 26.93,-1.6 h 329.95 83.42 14.53 207.15 c 56.6,0 105.62,32.1 130.06,79.1 64.77,-38.4 116.38,-96.5 146.15,-166.4 18.19,-42.6 28.26,-89.6 28.26,-138.9 0,-179.4 -133.29,-327.6 -306.24,-351.2 -3.43,-1.8 -6.71,1.7 -10.26,0 h -119.5 -658.42 -157.97 c -67.86,4.3 -127.56,38.6 -165.98,89.8 -28.26,37.7 -45,84.5 -45,135.3 0,77.2 38.87,145.4 98.1,186.1" /><path
         id="path86"
         style="fill:#ef3525;fill-opacity:1;fill-rule:nonzero;stroke:none"
         d="m 4906.43,5113.2 h 361.25 v -116.1 c 0,-57.4 -46.69,-104.1 -104.08,-104.1 h -160.11 c -53.52,0 -97.06,43.5 -97.06,97 z m 557.33,0 h 361.25 v -112.5 c 0,-57.4 -46.69,-104.1 -104.08,-104.1 h -160.11 c -53.52,0 -97.06,43.5 -97.06,97.1 v 51.2 48.1 z m -810.93,56.1 c -32.07,0 -57.87,-21.7 -57.87,-53.8 h 255.35 v -121.8 c 0,-84.6 68.58,-153.2 153.18,-153.2 h 160.11 c 88.48,0 160.19,71.7 160.19,160.2 v 44.2 h 83.86 v -51.2 c 0,-84.6 68.58,-153.2 153.17,-153.2 h 160.12 c 88.47,0 160.18,71.7 160.18,160.2 v 124 44.6 h -56.73 -416.74 V 5093 h -83.86 v 76.3 h -417.73 -55.75 -197.48" /><path
         id="path88"
         style="fill:#f48468;fill-opacity:1;fill-rule:nonzero;stroke:none"
         d="m 5413.27,5044.9 115.8,-305 c -12.11,0 -205.28,0 -205.28,0 v 305 h 89.48" /><path
         id="path90"
         style="fill:#f6a78b;fill-opacity:1;fill-rule:nonzero;stroke:none"
         d="m 4673.05,5115.2 h 33.3 v -379 h -33.3 c -104.65,0 -189.48,84.8 -189.48,189.5 0,104.6 84.83,189.5 189.48,189.5" /><path
         id="path92"
         style="fill:#f6a78b;fill-opacity:1;fill-rule:nonzero;stroke:none"
         d="m 5413.27,5044.9 145.54,-305 h -61.13 l -109.46,305 h 25.05" /><path
         id="path94"
         style="fill:#555658;fill-opacity:1;fill-rule:nonzero;stroke:none"
         d="m 4578.87,4750.3 c 0,-12.3 10.05,-22.4 22.4,-22.4 12.34,0 22.39,10.1 22.39,22.4 0,12.4 -10.05,22.4 -22.39,22.4 -12.35,0 -22.4,-10 -22.4,-22.4 z m -27.11,0 c 0,27.3 22.21,49.5 49.51,49.5 27.29,0 49.5,-22.2 49.5,-49.5 0,-27.3 -22.21,-49.5 -49.5,-49.5 -27.3,0 -49.51,22.2 -49.51,49.5" /><path
         id="path96"
         style="fill:#ffffff;fill-opacity:1;fill-rule:nonzero;stroke:none"
         d="m 4226.75,3281.6 h -724.16 c -72.55,0 -131.36,-58.8 -131.36,-131.3 v -2.7 c 0,-72.5 58.81,-131.3 131.36,-131.3 h 381.45 55.9 142.66 55.89 4238.92 c 72.55,0 131.36,58.8 131.36,131.3 v 2.7 c 0,72.5 -58.81,131.3 -131.36,131.3 H 4226.75" /><path
         id="path98"
         style="fill:#ffffff;fill-opacity:1;fill-rule:nonzero;stroke:none"
         d="M 4629.57,950.602 4549.58,1216" /><path
         id="path100"
         style="fill:#ffffff;fill-opacity:1;fill-rule:nonzero;stroke:none"
         d="m 4729.53,1216 -545.91,1811 c -2.13,7.1 -2.13,14.7 0,21.8 l 7.58,25.1 c 7.21,23.9 -10.69,48 -35.67,48 h -0.51 -129.29 -0.51 c -24.98,0 -42.89,-24.1 -35.68,-48 l 7.58,-25.1 c 2.14,-7.1 2.14,-14.7 0,-21.8 l -545.9,-1811 -65.37,-216.898 c -7.29,-24.102 10.8,-48.5 36.03,-48.5 h 101.33 c 16.61,0 31.25,10.898 36.04,26.8 l 71.92,238.598 423.17,1403.9 c 10.76,35.7 61.31,35.7 72.07,0 L 4549.58,1216 4621.5,977.402 c 4.79,-15.902 19.43,-26.8 36.04,-26.8 h 101.33 c 25.23,0 43.32,24.398 36.03,48.5 L 4729.53,1216" /><path
         id="path102"
         style="fill:#ffffff;fill-opacity:1;fill-rule:nonzero;stroke:none"
         d="M 4684.41,1183.9 H 3510.3 v 176.9 h 1174.11 v -176.9" /><path
         id="path104"
         style="fill:#ffffff;fill-opacity:1;fill-rule:nonzero;stroke:none"
         d="m 8428.78,1216 -545.9,1811 c -2.14,7.1 -2.14,14.7 0,21.8 l 7.58,25.1 c 7.21,23.9 -10.7,48 -35.68,48 h -0.51 -129.29 -0.51 c -24.98,0 -42.88,-24.1 -35.68,-48 l 7.59,-25.1 c 2.13,-7.1 2.13,-14.7 0,-21.8 L 7150.47,1216 7085.1,999.102 c -7.29,-24.102 10.8,-48.5 36.03,-48.5 h 101.33 c 16.61,0 31.25,10.898 36.04,26.8 l 71.92,238.598 423.17,1403.9 c 10.76,35.7 61.31,35.7 72.07,0 L 8248.83,1216 8320.75,977.402 c 4.79,-15.902 19.43,-26.8 36.04,-26.8 h 101.33 c 25.23,0 43.32,24.398 36.03,48.5 L 8428.78,1216" /><path
         id="path106"
         style="fill:#ffffff;fill-opacity:1;fill-rule:nonzero;stroke:none"
         d="M 8376.68,1183.9 H 7202.57 v 176.9 h 1174.11 v -176.9" /><path
         id="path108"
         style="fill:#bebdbb;fill-opacity:1;fill-rule:nonzero;stroke:none"
         d="m 6447.21,3792.4 h 0.04 c -5.67,11.6 -7.59,24.9 -4.93,37.9 l 308.3,1509.6 c 4.82,23.6 23.54,41.3 46.56,45.5 v 0 h 0.04 c 3.15,0.5 6.39,0.8 9.68,0.9 40.65,2.9 117.61,-0.1 117.61,-0.1 l -66.32,-105.9 -290.53,-1433.9 44.79,-136.4 c 0,0 -123.74,6.3 -163.65,79.5 l -1.36,2.5 -0.23,0.4" /><path
         id="path110"
         style="fill:#ffffff;fill-opacity:1;fill-rule:nonzero;stroke:none"
         d="m 6612.45,3710 h 1893.11 c 47.12,0 87.72,33.2 97.08,79.4 l 300.56,1483.4 c 11.88,58.7 -32.95,113.5 -92.8,113.5 H 6927.11 c -27.6,0 -51.39,-19.5 -56.88,-46.5 L 6554.41,3781 c -7.44,-36.7 20.61,-71 58.04,-71" /><path
         id="path112"
         style="fill:#ffffff;fill-opacity:1;fill-rule:nonzero;stroke:none"
         d="m 7646.43,3275.5 h 337.94 c 45.87,0 80.92,41 73.87,86.3 l -142.61,880.8 H 7490.4 l 48.41,-967.1 h 107.62" /><path
         id="path114"
         style="fill:#bebdbb;fill-opacity:1;fill-rule:nonzero;stroke:none"
         d="m 7239.09,3418.2 h 163.37 c 63.59,0 112.15,56.8 102.3,119.6 l -100.62,605.1 c -8.21,52.4 32.26,99.7 85.24,99.7 h 1.02 l 133.84,-824.4 6.89,-44.3 c 8.04,-51.7 -31.92,-98.4 -84.23,-98.4 h -1 -430.66 v 18.8 c 0,68.4 55.45,123.9 123.85,123.9" /><path
         id="path116"
         style="fill:#e0e4e2;fill-opacity:1;fill-rule:nonzero;stroke:none"
         d="m 7712.18,4740.8 c 106.05,0 192.02,-86 192.02,-192 0,-106.1 -85.97,-192 -192.02,-192 -106.05,0 -192.02,85.9 -192.02,192 106.05,0 192.02,85.9 192.02,192" /><path
         id="path118"
         style="fill:#f6a78b;fill-opacity:1;fill-rule:nonzero;stroke:none"
         d="m 6661.58,1519.6 193.48,112.4 -86.07,148.2 -195.74,-101.8 88.33,-158.8" /><path
         id="path120"
         style="fill:#3a1e15;fill-opacity:1;fill-rule:nonzero;stroke:none"
         d="m 6758.33,1603.6 c 104.81,23.7 178.52,92.6 164.64,153.9 -0.65,2.9 -1.55,5.7 -2.55,8.4 l 235.65,53.4 c 131.97,29.9 263.18,-52.8 293.08,-184.8 l -837.03,-189.7 c -13.98,61.7 -26.66,79.4 6.85,127.2 161.36,36.5 80.03,18.1 139.36,31.6" /><path
         id="path122"
         style="fill:#e0e4e2;fill-opacity:1;fill-rule:nonzero;stroke:none"
         d="m 4186.87,3016.3 h -193 l -25.47,-84.6 h 243.95 l -25.48,84.6" /><path
         id="path124"
         style="fill:#e0e4e2;fill-opacity:1;fill-rule:nonzero;stroke:none"
         d="m 7886.12,3016.3 h -192.99 l -25.48,-84.6 h 243.95 l -25.48,84.6" /><path
         id="path126"
         style="fill:#f6a78b;fill-opacity:1;fill-rule:nonzero;stroke:none"
         d="m 4252.4,5326.4 56.45,18.5 c 3.01,1 5.98,2 8.92,3.1 124.56,47 55.84,235.3 -70.71,194 l -255.14,-83.4 c 35.43,-108.4 152.05,-167.6 260.48,-132.2" /><path
         id="path128"
         style="fill:#f6a78b;fill-opacity:1;fill-rule:nonzero;stroke:none"
         d="m 4285.12,5487.3 c -21.26,-28.5 -61.54,-34.3 -89.96,-13 -28.42,21.3 -34.22,61.5 -12.96,90 l 265.21,354.5 c 21.26,28.4 61.54,34.2 89.96,12.9 28.42,-21.2 34.22,-61.5 12.96,-89.9 l -265.21,-354.5" /><path
         id="path130"
         style="fill:#f6a78b;fill-opacity:1;fill-rule:nonzero;stroke:none"
         d="m 4244.98,3370.9 -0.01,-88.7 158.43,47.4 z" /><path
         id="path132"
         style="fill:#131916;fill-opacity:1;fill-rule:nonzero;stroke:none"
         d="m 4327.63,3349.4 -0.15,-42.5 75.92,22.7 z" /><path
         id="path134"
         style="fill:#193336;fill-opacity:1;fill-rule:nonzero;stroke:none"
         d="m 4244.9,3371 0.07,-88.8 -628.75,-0.5 -0.07,88.7 628.75,0.6" /><path
         id="path136"
         style="fill:#bebdbb;fill-opacity:1;fill-rule:nonzero;stroke:none"
         d="m 3616.15,3370.4 0.07,-88.7 -38.86,-0.1 c -24.26,0 -43.94,19.7 -43.96,43.9 v 0.9 c -0.03,24.3 19.63,44 43.89,44 h 38.86" /><path
         id="path138"
         style="fill:#28637c;fill-opacity:1;fill-rule:nonzero;stroke:none"
         d="m 6249.44,6915.3 -77.07,11.3 37.42,254.5 -205.94,-329.7 77.07,-11.3 -37.42,-254.5 205.94,329.7" /><path
         id="path140"
         style="fill:#28637c;fill-opacity:1;fill-rule:nonzero;stroke:none"
         d="m 5284.41,7270 -74.18,-23.7 -78.42,245 -39.79,-386.7 74.18,23.7 78.42,-244.9 39.79,386.6" /><path
         id="path142"
         style="fill:#3d9eab;fill-opacity:1;fill-rule:nonzero;stroke:none"
         d="m 6109.36,11876.4 c -22.9,0 -45.85,8.4 -63.81,25.4 -37.31,35.2 -38.97,94 -3.72,131.3 l 3.19,3.4 c 35.26,37.3 94.09,39 131.39,3.7 37.31,-35.2 38.97,-94 3.72,-131.3 l -3.19,-3.4 c -18.28,-19.4 -42.91,-29.1 -67.58,-29.1" /><path
         id="path144"
         style="fill:#3d9eab;fill-opacity:1;fill-rule:nonzero;stroke:none"
         d="m 5792.88,11541.1 c -22.89,0 -45.83,8.4 -63.79,25.3 -37.32,35.3 -39.01,94.1 -3.77,131.4 l 6.2,6.6 c 35.23,37.3 94.06,39 131.39,3.8 37.32,-35.3 39.01,-94.1 3.78,-131.4 l -6.21,-6.6 c -18.28,-19.4 -42.91,-29.1 -67.6,-29.1 z m -316.48,-335.3 c -22.89,0 -45.82,8.4 -63.78,25.3 -37.32,35.2 -39.01,94.1 -3.78,131.4 l 6.21,6.6 c 35.22,37.3 94.05,39 131.38,3.7 37.33,-35.2 39.01,-94 3.78,-131.3 l -6.21,-6.6 c -18.28,-19.4 -42.91,-29.1 -67.6,-29.1 z m -316.48,-335.4 c -22.9,0 -45.84,8.5 -63.81,25.4 -37.31,35.3 -38.98,94.1 -3.73,131.4 l 6.21,6.6 c 35.24,37.3 94.07,39 131.38,3.7 37.31,-35.2 38.98,-94.1 3.73,-131.4 l -6.21,-6.5 c -18.27,-19.4 -42.9,-29.2 -67.57,-29.2 z m -316.48,-335.3 c -22.89,0 -45.82,8.4 -63.78,25.4 -37.33,35.2 -39.01,94.1 -3.78,131.4 l 6.21,6.5 c 35.22,37.4 94.05,39.1 131.39,3.8 37.32,-35.2 39,-94 3.77,-131.3 l -6.21,-6.6 c -18.28,-19.4 -42.91,-29.2 -67.6,-29.2 z m -316.48,-335.3 c -22.89,0 -45.83,8.4 -63.79,25.4 -37.32,35.2 -39.01,94 -3.77,131.4 l 6.2,6.5 c 35.23,37.4 94.05,39.1 131.39,3.8 37.32,-35.2 39.01,-94 3.78,-131.4 l -6.21,-6.5 c -18.28,-19.4 -42.91,-29.2 -67.6,-29.2 z M 3894,9529.21 c -22.9,0 -45.85,8.41 -63.81,25.38 -37.31,35.26 -38.98,94.08 -3.73,131.39 l 6.2,6.57 c 35.24,37.31 94.08,38.99 131.39,3.73 37.31,-35.25 38.98,-94.07 3.73,-131.38 l -6.2,-6.57 c -18.28,-19.35 -42.91,-29.12 -67.58,-29.12 z M 2628.08,8187.98 c -22.9,0 -45.84,8.41 -63.8,25.39 -37.31,35.25 -38.99,94.07 -3.74,131.38 l 6.21,6.57 c 35.25,37.3 94.08,38.99 131.38,3.73 37.31,-35.25 38.98,-94.07 3.74,-131.38 l -6.21,-6.57 c -18.28,-19.35 -42.9,-29.12 -67.58,-29.12" /><path
         id="path146"
         style="fill:#3d9eab;fill-opacity:1;fill-rule:nonzero;stroke:none"
         d="m 893.031,11955.1 -1.801,0.1 -9.292,0.1 c -51.321,1 -92.133,43.4 -91.153,94.7 0.977,51.3 43.391,92.6 94.692,91.2 l 9.293,-0.2 c 51.324,-1 92.132,-43.4 91.152,-94.7 -0.961,-50.7 -42.387,-91.2 -92.891,-91.2 z m 947.819,-17.9 h -1.81 l -9.29,0.2 c -51.32,1 -92.13,43.4 -91.15,94.7 0.98,51.3 43.69,92.2 94.69,91.1 l 9.29,-0.1 c 51.32,-1 92.13,-43.4 91.15,-94.7 -0.96,-50.8 -42.38,-91.2 -92.88,-91.2 z m 1421.72,-26.9 h -1.76 l -9.3,0.2 c -51.31,0.9 -92.15,43.3 -91.19,94.6 0.94,51.3 43.17,91.9 94.64,91.2 l 9.3,-0.2 c 51.31,-0.9 92.15,-43.3 91.19,-94.6 -0.93,-50.7 -42.35,-91.2 -92.88,-91.2 z m 473.91,-9 h -1.81 l -9.29,0.2 c -51.32,1 -92.13,43.4 -91.15,94.7 0.96,50.7 42.38,91.2 92.88,91.2 l 1.81,-0.1 9.29,-0.1 c 51.32,-1 92.13,-43.4 91.15,-94.7 -0.96,-50.7 -42.38,-91.2 -92.88,-91.2 z m 473.9,-9 -1.81,0.1 -9.28,0.1 c -51.33,1 -92.13,43.4 -91.15,94.7 0.97,51.3 43.44,92.3 94.69,91.2 l 9.28,-0.2 c 51.33,-1 92.13,-43.4 91.15,-94.7 -0.96,-50.7 -42.38,-91.2 -92.88,-91.2 z m 473.91,-8.9 h -1.81 l -9.29,0.2 c -51.32,0.9 -92.13,43.3 -91.15,94.7 0.98,51.3 43.2,92.3 94.69,91.1 l 9.29,-0.2 c 51.32,-0.9 92.14,-43.3 91.15,-94.7 -0.96,-50.7 -42.38,-91.1 -92.88,-91.1" /><path
         id="path148"
         style="fill:#3d9eab;fill-opacity:1;fill-rule:nonzero;stroke:none"
         d="m 2050.85,15861.5 c -23.47,0 -46.96,8.9 -65.05,26.6 l -6.64,6.5 c -36.66,35.9 -37.25,94.8 -1.32,131.4 35.94,36.7 94.78,37.3 131.43,1.4 l 6.64,-6.5 c 36.66,-36 37.25,-94.8 1.32,-131.5 -18.2,-18.5 -42.28,-27.9 -66.38,-27.9 z m 676.95,-663.6 c -23.46,0 -46.94,8.8 -65.03,26.5 l -6.64,6.5 c -36.66,36 -37.27,94.8 -1.36,131.5 35.92,36.7 94.75,37.3 131.43,1.4 l 6.64,-6.5 c 36.67,-36 37.28,-94.8 1.36,-131.5 -18.2,-18.6 -42.29,-27.9 -66.4,-27.9 z m 1353.9,-1327.3 c -23.47,0 -46.96,8.9 -65.05,26.6 l -6.63,6.5 c -36.66,35.9 -37.25,94.8 -1.32,131.4 35.93,36.7 94.78,37.3 131.43,1.4 l 6.64,-6.5 c 36.66,-36 37.25,-94.8 1.32,-131.5 -18.2,-18.5 -42.29,-27.9 -66.39,-27.9 z m 338.48,-331.8 c -23.48,0 -46.98,8.9 -65.07,26.6 l -6.63,6.5 c -36.65,36 -37.22,94.8 -1.27,131.5 35.93,36.6 94.76,37.2 131.42,1.2 l 6.63,-6.5 c 36.65,-35.9 37.22,-94.8 1.27,-131.4 -18.19,-18.6 -42.26,-27.9 -66.35,-27.9 z m 338.47,-331.8 c -23.48,0 -46.97,8.9 -65.06,26.6 l -6.64,6.5 c -36.65,36 -37.22,94.8 -1.27,131.4 35.92,36.7 94.78,37.3 131.42,1.3 l 6.64,-6.5 c 36.65,-35.9 37.22,-94.8 1.27,-131.4 -18.2,-18.6 -42.27,-27.9 -66.36,-27.9 z m 338.48,-331.8 c -23.48,0 -46.98,8.8 -65.07,26.6 l -6.63,6.5 c -36.65,35.9 -37.22,94.8 -1.27,131.4 35.92,36.7 94.77,37.2 131.42,1.3 l 6.63,-6.5 c 36.65,-36 37.23,-94.8 1.28,-131.4 -18.19,-18.6 -42.27,-27.9 -66.36,-27.9 z m 338.48,-331.8 c -23.48,0 -46.98,8.8 -65.07,26.6 l -6.63,6.5 c -36.65,35.9 -37.23,94.8 -1.28,131.4 35.94,36.7 94.78,37.2 131.43,1.3 l 6.63,-6.5 c 36.65,-36 37.22,-94.8 1.27,-131.5 -18.2,-18.5 -42.27,-27.8 -66.35,-27.8 z m 338.47,-331.8 c -23.48,0 -46.98,8.8 -65.06,26.6 l -6.64,6.5 c -36.65,35.9 -37.22,94.7 -1.27,131.4 35.92,36.6 94.76,37.2 131.42,1.3 l 6.64,-6.5 c 36.65,-36 37.22,-94.8 1.27,-131.5 -18.2,-18.5 -42.27,-27.8 -66.36,-27.8 z m 338.48,-331.9 c -23.48,0 -46.98,8.9 -65.07,26.6 l -6.63,6.5 c -36.65,36 -37.22,94.8 -1.27,131.5 35.93,36.6 94.77,37.2 131.42,1.2 l 6.63,-6.5 c 36.65,-35.9 37.23,-94.7 1.27,-131.4 -18.18,-18.5 -42.26,-27.9 -66.35,-27.9" /><path
         id="path150"
         style="fill:#3d9eab;fill-opacity:1;fill-rule:nonzero;stroke:none"
         d="m 6116.1,11876.8 c -20.87,0 -41.86,7 -59.2,21.3 l -3.57,3 c -39.55,32.7 -45.08,91.3 -12.36,130.8 32.71,39.6 91.31,45.1 130.86,12.4 l 3.57,-3 c 39.55,-32.7 45.08,-91.3 12.36,-130.8 -18.38,-22.2 -44.92,-33.7 -71.66,-33.7" /><path
         id="path152"
         style="fill:#3d9eab;fill-opacity:1;fill-rule:nonzero;stroke:none"
         d="m 6474.8,11581.1 c -20.82,0 -41.75,7 -59.06,21.3 l -7.04,5.8 c -39.61,32.6 -45.23,91.2 -12.58,130.8 32.65,39.6 91.22,45.2 130.83,12.6 l 7.03,-5.8 c 39.61,-32.7 45.25,-91.3 12.59,-130.9 -18.38,-22.3 -44.97,-33.8 -71.77,-33.8 z m 358.7,-295.7 c -20.82,0 -41.75,7 -59.07,21.3 l -7.03,5.8 c -39.61,32.6 -45.24,91.2 -12.59,130.8 32.66,39.6 91.23,45.3 130.84,12.6 l 7.03,-5.8 c 39.61,-32.7 45.24,-91.2 12.59,-130.8 -18.38,-22.3 -44.98,-33.9 -71.77,-33.9 z m 358.7,-295.6 c -20.81,0 -41.75,6.9 -59.07,21.2 l -7.03,5.8 c -39.61,32.7 -45.24,91.2 -12.59,130.9 32.66,39.6 91.22,45.2 130.83,12.5 l 7.04,-5.8 c 39.61,-32.6 45.23,-91.2 12.58,-130.8 -18.37,-22.3 -44.97,-33.8 -71.76,-33.8 z m 358.7,-295.7 c -20.82,0 -41.75,7 -59.07,21.3 l -7.03,5.8 c -39.61,32.6 -45.24,91.2 -12.59,130.8 32.65,39.6 91.22,45.2 130.83,12.6 l 7.03,-5.8 c 39.61,-32.7 45.24,-91.3 12.59,-130.9 -18.38,-22.3 -44.97,-33.8 -71.76,-33.8 z m 358.7,-295.7 c -20.82,0 -41.76,7 -59.07,21.3 l -7.04,5.8 c -39.6,32.6 -45.23,91.2 -12.58,130.8 32.65,39.6 91.22,45.2 130.83,12.6 l 7.03,-5.8 c 39.61,-32.7 45.24,-91.2 12.59,-130.8 -18.38,-22.3 -44.97,-33.9 -71.76,-33.9 z m 717.39,-591.3 c -20.82,0 -41.75,6.96 -59.07,21.24 l -7.03,5.8 c -39.61,32.65 -45.25,91.23 -12.59,130.83 32.66,39.63 91.22,45.23 130.83,12.58 l 7.04,-5.8 c 39.61,-32.65 45.24,-91.23 12.59,-130.83 -18.38,-22.29 -44.98,-33.82 -71.77,-33.82 z M 10061.8,8624.43 c -20.8,0 -41.7,6.95 -59.1,21.21 l -6.99,5.79 c -39.62,32.65 -45.27,91.22 -12.64,130.83 32.63,39.61 91.23,45.27 130.83,12.64 l 7,-5.8 c 39.6,-32.64 45.3,-91.21 12.7,-130.82 -18.4,-22.31 -45,-33.85 -71.8,-33.85" /><path
         id="path154"
         style="fill:#3d9eab;fill-opacity:1;fill-rule:nonzero;stroke:none"
         d="m 11143.6,11945 c -50.5,0 -91.9,40.4 -92.9,91.1 -1,51.3 39.8,93.8 91.1,94.8 l 9.3,0.2 c 51.3,0.9 93.7,-39.8 94.7,-91.2 1,-51.3 -39.8,-93.7 -91.1,-94.7 l -9.3,-0.2 z m -947.8,-18.6 c -50.5,0 -91.9,40.4 -92.9,91.1 -1,51.3 39.8,93.7 91.1,94.7 l 9.3,0.2 c 51.2,0.9 93.7,-39.8 94.7,-91.1 1,-51.3 -39.8,-93.7 -91.1,-94.7 l -9.3,-0.2 z m -1421.72,-28 c -50.48,0 -91.9,40.4 -92.88,91.1 -1.01,51.3 39.79,93.8 91.1,94.8 l 9.29,0.1 c 51.05,1 93.74,-39.7 94.74,-91.1 1,-51.3 -39.79,-93.7 -91.1,-94.7 l -9.3,-0.2 z m -473.9,-9.3 c -50.46,0 -91.87,40.4 -92.89,91.1 -1.02,51.3 39.75,93.7 91.07,94.7 l 9.29,0.2 h 1.9 c 50.46,0 91.86,-40.4 92.88,-91 1.03,-51.4 -39.74,-93.8 -91.06,-94.8 l -9.29,-0.2 z m -473.9,-9.4 c -50.49,0 -91.9,40.5 -92.89,91.2 -0.99,51.3 39.79,93.7 91.11,94.7 l 9.29,0.2 c 51.36,1 93.74,-39.8 94.74,-91.1 1.01,-51.3 -39.79,-93.8 -91.11,-94.8 l -9.29,-0.1 -1.85,-0.1" /><path
         id="path156"
         style="fill:#3d9eab;fill-opacity:1;fill-rule:nonzero;stroke:none"
         d="m 10099,15872.9 c -24,0 -48,9.3 -66.2,27.8 -36.02,36.6 -35.56,95.4 1,131.4 l 6.7,6.5 c 36.5,36 95.4,35.6 131.4,-1 36,-36.6 35.5,-95.4 -1.1,-131.5 l -6.6,-6.5 c -18.1,-17.8 -41.6,-26.7 -65.2,-26.7 z M 8747.67,14543.1 c -24.05,0 -48.06,9.2 -66.25,27.7 -36,36.6 -35.54,95.4 1.04,131.4 l 6.63,6.6 c 36.59,36 95.44,35.5 131.43,-1.1 36.01,-36.6 35.54,-95.4 -1.04,-131.4 l -6.63,-6.5 c -18.1,-17.9 -41.65,-26.7 -65.18,-26.7 z m -675.68,-665 c -24.05,0 -48.06,9.3 -66.25,27.8 -36.01,36.6 -35.54,95.4 1.04,131.4 l 6.63,6.5 c 36.58,36.1 95.43,35.6 131.43,-1 36,-36.6 35.54,-95.4 -1.04,-131.4 l -6.63,-6.6 c -18.1,-17.8 -41.65,-26.7 -65.18,-26.7 z m -337.85,-332.4 c -24.04,0 -48.05,9.2 -66.24,27.7 -36.01,36.6 -35.54,95.5 1.04,131.5 l 6.63,6.5 c 36.58,36 95.44,35.5 131.43,-1.1 36,-36.5 35.54,-95.4 -1.05,-131.4 l -6.62,-6.5 c -18.1,-17.8 -41.65,-26.7 -65.19,-26.7 z m -337.84,-332.5 c -24.04,0 -48.05,9.3 -66.24,27.8 -36.01,36.5 -35.55,95.4 1.04,131.4 l 6.63,6.5 c 36.59,36 95.43,35.5 131.43,-1 36,-36.6 35.54,-95.5 -1.05,-131.5 l -6.62,-6.5 c -18.1,-17.8 -41.65,-26.7 -65.19,-26.7 z m -337.84,-332.4 c -24.04,0 -48.06,9.2 -66.24,27.7 -36.01,36.6 -35.55,95.4 1.04,131.4 l 6.63,6.5 c 36.58,36 95.44,35.6 131.43,-1 36,-36.6 35.54,-95.4 -1.05,-131.4 l -6.62,-6.6 c -18.1,-17.8 -41.65,-26.6 -65.19,-26.6 z m -337.85,-332.5 c -24.03,0 -48.05,9.3 -66.23,27.7 -36.01,36.6 -35.55,95.5 1.04,131.5 l 6.62,6.5 c 36.57,36 95.42,35.5 131.44,-1.1 36,-36.5 35.54,-95.4 -1.05,-131.4 l -6.62,-6.5 c -18.1,-17.8 -41.65,-26.7 -65.2,-26.7 z m -337.83,-332.5 c -24.04,0 -48.06,9.3 -66.24,27.8 -36.01,36.6 -35.55,95.4 1.04,131.4 l 6.62,6.5 c 36.59,36 95.44,35.6 131.44,-1 36,-36.6 35.54,-95.4 -1.05,-131.4 l -6.62,-6.6 c -18.1,-17.8 -41.65,-26.7 -65.19,-26.7 z m -337.84,-332.4 c -24.05,0 -48.08,9.2 -66.27,27.7 -35.99,36.6 -35.51,95.5 1.1,131.5 l 6.61,6.5 c 36.62,36 95.46,35.5 131.44,-1.1 35.99,-36.6 35.5,-95.4 -1.09,-131.4 l -6.63,-6.6 c -18.1,-17.8 -41.63,-26.6 -65.16,-26.6" /><g
         transform="scale(1.04198)"
         id="g158"><path
           id="path160"
           style="fill:#3d9eab;fill-opacity:1;fill-rule:nonzero;stroke:none"
           d="m 5843.67,16112.7 c -49.26,0 -89.19,39.9 -89.19,89.2 v 8.9 c 0,49.3 39.93,89.2 89.19,89.2 49.26,0 89.2,-39.9 89.2,-89.2 v -8.9 c 0,-49.3 -39.94,-89.2 -89.2,-89.2 z m 0,-913.8 c -49.26,0 -89.19,39.9 -89.19,89.2 v 8.9 c 0,49.3 39.93,89.2 89.19,89.2 49.26,0 89.2,-39.9 89.2,-89.2 v -8.9 c 0,-49.3 -39.94,-89.2 -89.2,-89.2 z m 0,-913.8 c -49.26,0 -89.19,39.9 -89.19,89.2 v 9 c 0,49.2 39.93,89.2 89.19,89.2 49.26,0 89.2,-40 89.2,-89.2 v -9 c 0,-49.3 -39.94,-89.2 -89.2,-89.2 z m 0,-456.9 c -49.26,0 -89.19,40 -89.19,89.2 v 9 c 0,49.2 39.93,89.2 89.19,89.2 49.26,0 89.2,-40 89.2,-89.2 v -9 c 0,-49.2 -39.94,-89.2 -89.2,-89.2 z m 0,-456.9 c -49.26,0 -89.19,40 -89.19,89.2 v 9 c 0,49.2 39.93,89.2 89.19,89.2 49.26,0 89.2,-40 89.2,-89.2 v -9 c 0,-49.2 -39.94,-89.2 -89.2,-89.2 z m 0,-456.9 c -49.26,0 -89.19,40 -89.19,89.2 v 9 c 0,49.3 39.93,89.2 89.19,89.2 49.26,0 89.2,-39.9 89.2,-89.2 v -9 c 0,-49.2 -39.94,-89.2 -89.2,-89.2 z m 0,-456.8 c -49.26,0 -89.19,39.9 -89.19,89.1 v 9 c 0,49.3 39.93,89.2 89.19,89.2 49.26,0 89.2,-39.9 89.2,-89.2 v -9 c 0,-49.2 -39.94,-89.1 -89.2,-89.1 z m 0,-456.9 c -49.26,0 -89.19,39.9 -89.19,89.2 v 8.9 c 0,49.3 39.93,89.2 89.19,89.2 49.26,0 89.2,-39.9 89.2,-89.2 v -8.9 c 0,-49.3 -39.94,-89.2 -89.2,-89.2 z m 0,-456.9 c -49.26,0 -89.19,39.9 -89.19,89.2 v 8.9 c 0,49.3 39.93,89.2 89.19,89.2 49.26,0 89.2,-39.9 89.2,-89.2 v -8.9 c 0,-49.3 -39.94,-89.2 -89.2,-89.2" /></g><path
         id="path162"
         style="fill:#3d9eab;fill-opacity:1;fill-rule:nonzero;stroke:none"
         d="m 6088.97,11557 c -51.33,0 -92.94,41.6 -92.94,92.9 v 4.7 c 0,51.3 41.61,92.9 92.94,92.9 51.32,0 92.94,-41.6 92.94,-92.9 v -4.7 c 0,-51.3 -41.62,-92.9 -92.94,-92.9" /><path
         id="path164"
         style="fill:#ffffff;fill-opacity:1;fill-rule:nonzero;stroke:none"
         d="m 6039.17,15191.6 c -1593.42,0 -2885.13,-1291.7 -2885.13,-2885.1 0,-186 17.81,-367.8 51.42,-543.9 185.36,-971.5 857.69,-1770.01 1753.4,-2131.98 59.65,-24.11 120.32,-46.19 181.86,-66.35 282.77,-92.64 584.71,-142.93 898.45,-142.93 304.28,0 597.44,47.36 872.8,134.72 70.35,22.32 139.59,47.11 207.49,74.56 895.71,361.97 1568.05,1160.48 1753.41,2131.98 33.61,176.1 51.42,357.9 51.42,543.9 0,1593.4 -1291.71,2885.1 -2885.12,2885.1" /><path
         id="path166"
         style="fill:#f9fafa;fill-opacity:1;fill-rule:nonzero;stroke:none"
         d="m 8089.17,12251.3 c 0,-1129.7 -915.78,-2045.4 -2045.45,-2045.4 -1129.68,0 -2045.45,915.7 -2045.45,2045.4 0,1129.7 915.77,2045.5 2045.45,2045.5 1129.67,0 2045.45,-915.8 2045.45,-2045.5" /><path
         id="path168"
         style="fill:#e0e4e2;fill-opacity:1;fill-rule:nonzero;stroke:none"
         d="m 5140.72,9592.15 v -980.21 c 0,-198.01 160.52,-358.53 358.53,-358.53 h 1054.19 c 198.01,0 358.53,160.52 358.53,358.53 v 972 c -275.36,-87.36 -568.52,-134.71 -872.8,-134.71 -313.74,0 -615.68,50.28 -898.45,142.92" /><path
         id="path170"
         style="fill:#a7a8a6;fill-opacity:1;fill-rule:nonzero;stroke:none"
         d="M 6911.97,8574.81 H 5140.72 v 142.5 h 1771.25 v -142.5" /><path
         id="path172"
         style="fill:#e0e4e2;fill-opacity:1;fill-rule:nonzero;stroke:none"
         d="m 6740.34,9392.58 h -130 v 1953.32 c 0,311.8 -253.64,565.4 -565.4,565.4 -311.77,0 -565.41,-253.6 -565.41,-565.4 V 9392.58 h -130 v 1953.32 c 0,383.4 311.96,695.4 695.41,695.4 383.44,0 695.4,-312 695.4,-695.4 V 9392.58" /><path
         id="path174"
         style="fill:#ef3525;fill-opacity:1;fill-rule:nonzero;stroke:none"
         d="m 6671,12359.6 -393.28,56.9 187.96,1298.7 -1046.82,-1684.4 393.28,-56.9 -187.96,-1298.7 1046.82,1684.4" /><path
         id="path176"
         style="fill:#e0e4e2;fill-opacity:1;fill-rule:nonzero;stroke:none"
         d="M 6911.97,8717.31 H 5140.72 v 874.84 h 1771.25 v -874.84" /><path
         id="path178"
         style="fill:#a7a8a6;fill-opacity:1;fill-rule:nonzero;stroke:none"
         d="M 6911.97,9065.08 H 5140.72 v 142.5 h 1771.25 v -142.5" /><path
         id="path180"
         style="fill:#f9c013;fill-opacity:1;fill-rule:nonzero;stroke:none"
         d="m 4944.76,12822.3 h -40.06 v 528.8 h 40.06 v -528.8" /><path
         id="path182"
         style="fill:#f9c013;fill-opacity:1;fill-rule:nonzero;stroke:none"
         d="m 4777.19,13066.7 v 40 h 295.08 v -40 h -295.08" /><path
         id="path184"
         style="fill:#f9c013;fill-opacity:1;fill-rule:nonzero;stroke:none"
         d="m 7628.18,11619 h -40.06 v 528.7 h 40.06 V 11619" /><path
         id="path186"
         style="fill:#f9c013;fill-opacity:1;fill-rule:nonzero;stroke:none"
         d="m 7460.61,11863.3 v 40.1 h 295.08 v -40.1 h -295.08" /><path
         id="path188"
         style="fill:#f9c013;fill-opacity:1;fill-rule:nonzero;stroke:none"
         d="m 4797.22,10716.9 h -40.06 v 528.8 h 40.06 v -528.8" /><path
         id="path190"
         style="fill:#f9c013;fill-opacity:1;fill-rule:nonzero;stroke:none"
         d="m 4629.65,10961.3 v 40 h 295.08 v -40 h -295.08" /><path
         id="path192"
         style="fill:#f9c013;fill-opacity:1;fill-rule:nonzero;stroke:none"
         d="m 6855.57,13768 h -40.05 v 528.8 h 40.05 V 13768" /><path
         id="path194"
         style="fill:#f9c013;fill-opacity:1;fill-rule:nonzero;stroke:none"
         d="m 6688.01,14012.4 v 40 h 295.07 v -40 h -295.07" /><path
         id="path196"
         style="fill:#75d1dc;fill-opacity:1;fill-rule:nonzero;stroke:none"
         d="m 8373.89,15381.8 h -44.69 v 590 h 44.69 v -590" /><path
         id="path198"
         style="fill:#75d1dc;fill-opacity:1;fill-rule:nonzero;stroke:none"
         d="m 8186.93,15654.4 v 44.8 h 329.24 v -44.8 h -329.24" /><path
         id="path200"
         style="fill:#9cdee1;fill-opacity:1;fill-rule:nonzero;stroke:none"
         d="m 9972.64,13056.1 h -44.69 v 590 h 44.69 v -590" /><path
         id="path202"
         style="fill:#9cdee1;fill-opacity:1;fill-rule:nonzero;stroke:none"
         d="m 9785.67,13328.7 v 44.7 h 329.23 v -44.7 h -329.23" /><path
         id="path204"
         style="fill:#9cdee1;fill-opacity:1;fill-rule:nonzero;stroke:none"
         d="m 9972.64,10304.7 h -44.69 v 590 h 44.69 v -590" /><path
         id="path206"
         style="fill:#9cdee1;fill-opacity:1;fill-rule:nonzero;stroke:none"
         d="m 9785.67,10577.4 v 44.7 h 329.23 v -44.7 h -329.23" /><path
         id="path208"
         style="fill:#75d1dc;fill-opacity:1;fill-rule:nonzero;stroke:none"
         d="m 8367.99,8587.13 h -44.7 v 589.95 h 44.7 v -589.95" /><path
         id="path210"
         style="fill:#75d1dc;fill-opacity:1;fill-rule:nonzero;stroke:none"
         d="m 8181.02,8859.76 v 44.69 h 329.24 v -44.69 h -329.24" /><path
         id="path212"
         style="fill:#9cdee1;fill-opacity:1;fill-rule:nonzero;stroke:none"
         d="m 2806.33,9607.97 h -44.7 v 589.93 h 44.7 v -589.93" /><path
         id="path214"
         style="fill:#9cdee1;fill-opacity:1;fill-rule:nonzero;stroke:none"
         d="m 2619.36,9880.6 v 44.69 h 329.24 v -44.69 h -329.24" /><path
         id="path216"
         style="fill:#75d1dc;fill-opacity:1;fill-rule:nonzero;stroke:none"
         d="m 2138.24,13086.7 h -44.69 v 590 h 44.69 v -590" /><path
         id="path218"
         style="fill:#75d1dc;fill-opacity:1;fill-rule:nonzero;stroke:none"
         d="m 1951.28,13359.3 v 44.7 h 329.24 v -44.7 h -329.24" /><path
         id="path220"
         style="fill:#9cdee1;fill-opacity:1;fill-rule:nonzero;stroke:none"
         d="m 4235.95,15654.4 h -44.69 v 590 h 44.69 v -590" /><path
         id="path222"
         style="fill:#9cdee1;fill-opacity:1;fill-rule:nonzero;stroke:none"
         d="m 4048.98,15927.1 v 44.7 h 329.24 v -44.7 h -329.24" /></g></g></svg>