<?xml version="1.0" encoding="UTF-8" standalone="no"?>
<svg
   xmlns:dc="http://purl.org/dc/elements/1.1/"
   xmlns:cc="http://creativecommons.org/ns#"
   xmlns:rdf="http://www.w3.org/1999/02/22-rdf-syntax-ns#"
   xmlns:svg="http://www.w3.org/2000/svg"
   xmlns="http://www.w3.org/2000/svg"
   viewBox="0 0 2400 1600"
   height="1600"
   width="2400"
   xml:space="preserve"
   id="svg2"
   version="1.1"><metadata
     id="metadata8"><rdf:RDF><cc:Work
         rdf:about=""><dc:format>image/svg+xml</dc:format><dc:type
           rdf:resource="http://purl.org/dc/dcmitype/StillImage" /></cc:Work></rdf:RDF></metadata><defs
     id="defs6" /><g
     transform="matrix(1.3333333,0,0,-1.3333333,0,1600)"
     id="g10"><g
       transform="scale(0.1)"
       id="g12"><g
         transform="scale(1.10429)"
         id="g14"><path
           id="path16"
           style="fill:#48bbc6;fill-opacity:0;fill-rule:nonzero;stroke:none"
           d="M 16300,0 H 0 V 10866.7 H 16300 V 0" /></g><g
         transform="scale(1.02498)"
         id="g18"><path
           id="path20"
           style="fill:#e50914;fill-opacity:1;fill-rule:nonzero;stroke:none"
           d="m 16300,986.458 c 0,-88.004 -71.3,-159.32 -159.3,-159.32 H 6288.86 c -87.99,0 -159.31,71.316 -159.31,159.32 0,88.002 71.32,159.322 159.31,159.322 h 9851.84 c 88,0 159.3,-71.32 159.3,-159.322" /></g><path
         id="path22"
         style="fill:#bebdbb;fill-opacity:1;fill-rule:nonzero;stroke:none"
         d="m 7961.93,2225.67 -108.89,108.89 v 154 l 108.89,108.89 h 153.99 l 108.89,-108.89 v -154 l -108.89,-108.89 h -153.99" /><path
         id="path24"
         style="fill:#e0e4e2;fill-opacity:1;fill-rule:nonzero;stroke:none"
         d="m 7808.45,2512.22 -108.89,108.89 v 153.99 l 108.89,108.89 h 153.99 l 108.89,-108.89 v -153.99 l -108.89,-108.89 h -153.99" /><path
         id="path26"
         style="fill:#e0e4e2;fill-opacity:1;fill-rule:nonzero;stroke:none"
         d="m 6650.72,1028.5 -108.89,108.9 v 154 l 108.89,108.9 h 153.99 l 108.89,-108.9 v -154 l -108.89,-108.9 h -153.99" /><path
         id="path28"
         style="fill:#ffffff;fill-opacity:1;fill-rule:nonzero;stroke:none"
         d="m 7303.62,2182.03 -122.51,122.5 v 173.25 l 122.51,122.51 h 173.25 l 122.51,-122.51 v -173.25 l -122.51,-122.5 h -173.25" /><path
         id="path30"
         style="fill:#bebdbb;fill-opacity:1;fill-rule:nonzero;stroke:none"
         d="m 7479.53,2388.31 -122.51,122.51 v 173.25 l 122.51,122.51 h 173.25 l 122.51,-122.51 v -173.25 l -122.51,-122.51 h -173.25" /><path
         id="path32"
         style="fill:#ffffff;fill-opacity:1;fill-rule:nonzero;stroke:none"
         d="m 7798.82,2179.18 -122.51,122.51 v 173.25 l 122.51,122.51 h 173.25 l 122.51,-122.51 v -173.25 l -122.51,-122.51 h -173.25" /><path
         id="path34"
         style="fill:#6c443a;fill-opacity:1;fill-rule:nonzero;stroke:none"
         d="M 8211.54,2329.83 H 7063.63 v -307.2 h 65.4 V 1028.5 h 1017.11 v 994.13 h 65.4 v 307.2" /><path
         id="path36"
         style="fill:#3a1e15;fill-opacity:1;fill-rule:nonzero;stroke:none"
         d="m 8143.63,1901.5 h -1014.6 v 121.13 h 1014.6 V 1901.5" /><path
         id="path38"
         style="fill:#A52323;fill-opacity:1;fill-rule:nonzero;stroke:none"
         d="m 11914.5,6742.33 v -834.85 c 0,-368.9 -300.1,-669.02 -669,-669.02 h -631.1 v -401.51 h 631.1 c 590.3,0 1070.6,480.23 1070.6,1070.53 0,337.3 -157,638.48 -401.6,834.85" /><path
         id="path40"
         style="fill:#f6a78b;fill-opacity:1;fill-rule:nonzero;stroke:none"
         d="m 10474.2,5269.58 h -125.3 c -240.7,0 -435.84,-195.12 -435.84,-435.81 H 10910 c 0,240.69 -195.1,435.81 -435.8,435.81" /><path
         id="path42"
         style="fill:#bebdbb;fill-opacity:1;fill-rule:nonzero;stroke:none"
         d="m 11715.3,1028.5 h -0.9 c -26.6,0 -48.4,21.3 -49,48 l -64.3,3111.84 92.2,1.89 32.5,-1584.62 c 1.9,-94.93 140.5,-102.72 153,-8.6 l 182.7,1367.02 91.3,-12.21 -388.9,-2880.92 c -3.3,-24.3 -24,-42.4 -48.6,-42.4" /><path
         id="path44"
         style="fill:#bebdbb;fill-opacity:1;fill-rule:nonzero;stroke:none"
         d="m 13530.1,1068.6 -518,2881.26 90.7,16.13 239.6,-1347.62 c 17.5,-98.38 162.8,-84.06 160.8,15.85 l -31.9,1554.12 92.2,1.89 64.2,-3112.03 c 0.6,-27.3 -21.4,-49.7 -48.7,-49.7 h -0.9 c -23.6,0 -43.8,16.9 -48,40.1" /><path
         id="path46"
         style="fill:#ecf1f1;fill-opacity:1;fill-rule:nonzero;stroke:none"
         d="m 12738.5,6498.33 v -809.27 c 0,-765.49 -620.5,-1386.03 -1386,-1386.03 h -14 c 253.9,-465.13 749.1,-779.68 1317.3,-775.41 818.3,6.15 1475.5,668.59 1475.5,1486.87 0,789.58 -615.5,1435.29 -1392.8,1483.84" /><path
         id="path48"
         style="fill:#3a1e15;fill-opacity:1;fill-rule:nonzero;stroke:none"
         d="m 10582.9,5134.75 -1.8,-0.62 c -48.3,-16.93 -101.3,8.55 -118.2,56.89 l -346.7,990.39 176.8,61.91 346.8,-990.39 c 16.9,-48.34 -8.6,-101.26 -56.9,-118.18" /><path
         id="path50"
         style="fill:#f6a78b;fill-opacity:1;fill-rule:nonzero;stroke:none"
         d="m 10807.3,1082 -343.1,125.9 163.9,447 343.2,-125.9 -164,-447" /><path
         id="path52"
         style="fill:#f6a78b;fill-opacity:1;fill-rule:nonzero;stroke:none"
         d="m 9961.52,1112.2 -343.18,125.9 163.96,447 343.2,-125.9 -163.98,-447" /><path
         id="path54"
         style="fill:#ecf1f1;fill-opacity:1;fill-rule:nonzero;stroke:none"
         d="m 15392,4364.45 h -370.4 L 14283.4,1195.6 c -19.9,-85.4 45,-167.1 132.7,-167.1 h 2.8 c 63.4,0 118.3,43.6 132.7,105.3 l 517,2219.1 c 34.1,146.27 242.3,146.27 276.4,0 l 517,-2219.1 c 14.4,-61.7 69.4,-105.3 132.7,-105.3 h 2.8 c 87.8,0 152.6,81.7 132.7,167.1 L 15392,4364.45" /><path
         id="path56"
         style="fill:#d9dddb;fill-opacity:1;fill-rule:nonzero;stroke:none"
         d="m 15350.6,4542.49 h -287.5 l -41.5,-178.04 h 370.4 l -41.4,178.04" /><path
         id="path58"
         style="fill:#adadab;fill-opacity:1;fill-rule:nonzero;stroke:none"
         d="m 15843.9,4542.49 h -1490.7 v 293.19 h 1490.7 c 80.1,0 145.1,-64.98 145.1,-145.13 v -2.93 c 0,-80.15 -65,-145.13 -145.1,-145.13" /><path
         id="path60"
         style="fill:#ecf1f1;fill-opacity:1;fill-rule:nonzero;stroke:none"
         d="m 7317.41,1028.5 h 2.83 c 63.33,0 118.31,43.6 132.68,105.3 l 517.01,2219.1 c 34.07,146.27 242.31,146.27 276.39,0 l 517.01,-2219.1 c 14.37,-61.7 69.35,-105.3 132.68,-105.3 h 2.83 c 87.73,0 152.59,81.7 132.68,167.1 L 8293.33,4364.45 H 7922.92 L 7184.73,1195.6 c -19.91,-85.4 44.95,-167.1 132.68,-167.1" /><path
         id="path62"
         style="fill:#bebdbb;fill-opacity:1;fill-rule:nonzero;stroke:none"
         d="m 7964.36,4542.49 -41.44,-178.04 h 370.41 l -41.44,178.04 h -287.53" /><path
         id="path64"
         style="fill:#131916;fill-opacity:1;fill-rule:nonzero;stroke:none"
         d="m 10160.8,1278.6 -607.11,181.6 879.61,2529.38 c 88.2,253.54 327.8,423.9 596.2,423.9 h 1830 v -5.53 c 0,-302.31 -245.1,-547.38 -547.4,-547.38 h -1197.7 c -33.3,0 -63.1,-21.14 -74,-52.61 L 10160.8,1278.6" /><path
         id="path66"
         style="fill:#3a1e15;fill-opacity:1;fill-rule:nonzero;stroke:none"
         d="m 9887.7,1228.6 c -175.58,0 -317.92,83.2 -317.92,185.9 0,4.8 0.41,9.5 1.03,14.3 h -394.78 c -221.07,0 -400.28,-179.2 -400.28,-400.3 H 10178 c 0,103.3 13.8,136.1 -56.9,200.1 -270.26,0 -134.01,0 -233.4,0" /><path
         id="path68"
         style="fill:#6c443a;fill-opacity:1;fill-rule:nonzero;stroke:none"
         d="m 10652.3,1228.6 c -175.6,0 -318,83.2 -318,185.9 0,4.8 0.5,9.5 1.1,14.3 h -394.82 c -221.06,0 -400.27,-179.2 -400.27,-400.3 h 1402.19 c 0,103.3 13.9,136.1 -56.8,200.1 -270.3,0 -134.1,0 -233.4,0" /><path
         id="path70"
         style="fill:#e0e4e2;fill-opacity:1;fill-rule:nonzero;stroke:none"
         d="m 11450.9,5678.26 v 0.03 c 9.2,18.88 12.4,40.59 8,61.94 l -503.7,2466.31 c -7.9,38.53 -38.5,67.57 -76.1,74.34 v 0 0.01 c -5.2,0.92 -10.5,1.4 -15.8,1.45 -66.5,4.78 -192.2,-0.12 -192.2,-0.12 l 108.4,-172.95 474.6,-2342.76 v 0 l -73.2,-222.88 c 0,0 202.2,10.22 267.4,129.94 0.8,1.34 1.6,2.64 2.2,4 l 0.4,0.69" /><path
         id="path72"
         style="fill:#ffffff;fill-opacity:1;fill-rule:nonzero;stroke:none"
         d="M 11180.9,5543.63 H 8087.95 c -76.99,0 -143.32,54.24 -158.61,129.7 l -491.06,2423.65 c -19.41,95.83 53.84,185.4 151.61,185.4 h 3076.91 c 45.2,0 84,-31.78 93,-75.99 l 516,-2546.78 c 12.1,-59.94 -33.7,-115.98 -94.9,-115.98" /><path
         id="path74"
         style="fill:#ffffff;fill-opacity:1;fill-rule:nonzero;stroke:none"
         d="m 9491.61,4833.77 h -552.14 c -74.93,0 -132.2,66.87 -120.68,140.91 l 233,1439.11 h 694.75 l -79.09,-1580.02 h -175.84" /><path
         id="path76"
         style="fill:#e0e4e2;fill-opacity:1;fill-rule:nonzero;stroke:none"
         d="m 10157.1,5066.83 h -266.89 c -103.89,0 -183.23,92.77 -167.13,195.4 l 164.39,988.74 c 13.42,85.52 -52.7,162.82 -139.27,162.82 h -1.66 l -218.67,-1346.96 -11.26,-72.38 c -13.14,-84.43 52.16,-160.68 137.61,-160.68 h 1.64 703.64 v 30.71 c 0,111.76 -90.6,202.35 -202.4,202.35" /><path
         id="path78"
         style="fill:#e0e4e2;fill-opacity:1;fill-rule:nonzero;stroke:none"
         d="m 9384.19,7227.76 c -173.27,0 -313.73,-140.46 -313.73,-313.73 0,-173.27 140.46,-313.73 313.73,-313.73 173.27,0 313.73,140.46 313.73,313.73 -173.26,0 -313.73,140.46 -313.73,313.73" /><path
         id="path80"
         style="fill:#A52323;fill-opacity:1;fill-rule:nonzero;stroke:none"
         d="m 13657.2,6862.69 -227.5,111.76 c -98,20.14 -142.2,-99.53 -242.2,-99.53 h -512.7 c -42.9,1.78 -82.9,2.39 -119.3,0 h -35.3 c 0,0 -399.3,-34.45 -449,-216.64 V 6149.15 4334.51 l 1587.4,78.97 v 1245.75 l -1.4,1203.46" /><path
         id="path82"
         style="fill:#7D2210;fill-opacity:1;fill-rule:nonzero;stroke:none"
         d="M 12053,6453.91 V 5216.72 h 1605.6 v 971.44 h -4.7 c -253.9,0 -457,210.89 -447.4,464.59 l 7.8,206.05 35.1,99.71 1.8,5.1 -1198.2,-509.7" /><path
         id="path84"
         style="fill:#ffffff;fill-opacity:1;fill-rule:nonzero;stroke:none"
         d="M 14395.4,4542.49 H 7290.92 c -80.16,0 -145.13,64.98 -145.13,145.13 v 2.93 c 0,80.15 64.97,145.13 145.13,145.13 h 7104.48 c 80.1,0 145.1,-64.98 145.1,-145.13 v -2.93 c 0,-80.15 -65,-145.13 -145.1,-145.13" /><path
         id="path86"
         style="fill:#A52323;fill-opacity:1;fill-rule:nonzero;stroke:none"
         d="m 13178.9,7008.07 h -17.3 l 17.9,-434.74 h 16 c 338.7,0 635.8,-304.87 635.8,-652.41 0,-359.75 -292.6,-652.41 -652.4,-652.41 h -647.8 v -434.74 h 647.8 c 599.5,0 1087.1,487.69 1087.1,1087.15 0,599.45 -487.6,1087.15 -1087.1,1087.15" /><path
         id="path88"
         style="fill:#193336;fill-opacity:1;fill-rule:nonzero;stroke:none"
         d="m 12291.9,6121.24 c 0,-40.43 -32.8,-73.2 -73.2,-73.2 -40.4,0 -73.2,32.77 -73.2,73.2 0,40.42 32.8,73.2 73.2,73.2 40.4,0 73.2,-32.78 73.2,-73.2" /><path
         id="path90"
         style="fill:#193336;fill-opacity:1;fill-rule:nonzero;stroke:none"
         d="m 12291.9,5880.34 c 0,-40.42 -32.8,-73.19 -73.2,-73.19 -40.4,0 -73.2,32.77 -73.2,73.19 0,40.43 32.8,73.2 73.2,73.2 40.4,0 73.2,-32.77 73.2,-73.2" /><path
         id="path92"
         style="fill:#193336;fill-opacity:1;fill-rule:nonzero;stroke:none"
         d="m 12291.9,5639.45 c 0,-40.42 -32.8,-73.2 -73.2,-73.2 -40.4,0 -73.2,32.78 -73.2,73.2 0,40.43 32.8,73.2 73.2,73.2 40.4,0 73.2,-32.77 73.2,-73.2" /><path
         id="path94"
         style="fill:#f6a78b;fill-opacity:1;fill-rule:nonzero;stroke:none"
         d="m 12218.2,7091.56 -310.3,-318.37 h 629.2 z" /><path
         id="path96"
         style="fill:#1D4040;fill-opacity:1;fill-rule:nonzero;stroke:none"
         d="m 13026.4,5802.09 h -490.5 c -28.2,0 -51.1,22.85 -51.1,51.04 0,28.18 22.9,51.03 51.1,51.03 h 43.3 c 13.7,0 24.8,11.09 24.8,24.77 0,13.68 -11.1,24.77 -24.8,24.77 h -102 -52 c -28.1,0 -51,22.85 -51,51.04 0,28.18 22.9,51.03 51,51.03 h 173.4 v 0 h 102.1 c 13.7,0 24.8,11.09 24.8,24.77 0,13.68 -11.1,24.77 -24.8,24.77 v 0 h -102.1 -30.8 v 0 c -28.1,0 -51,22.85 -51,51.03 0,28.19 22.9,51.04 51,51.04 h 665 c 28.2,0 51.1,-22.85 51.1,-51.04 0,-28.18 -22.9,-51.03 -51.1,-51.03 h -150.8 -297.2 c -13.7,0 -24.8,-11.09 -24.8,-24.77 0,-13.68 11.1,-24.77 24.8,-24.77 h 53.4 c 28.2,0 51.1,-22.85 51.1,-51.03 0,-28.19 -22.9,-51.04 -51.1,-51.04 h -174.9 c -13.7,0 -24.8,-11.09 -24.8,-24.77 0,-13.68 11.1,-24.77 24.8,-24.77 h 297.2 65.9 c 28.2,0 51.1,-22.85 51.1,-51.03 0,-28.19 -22.9,-51.04 -51.1,-51.04" /><path
         id="path98"
         style="fill:#1D4040;fill-opacity:1;fill-rule:nonzero;stroke:none"
         d="m 12583.2,5580.08 h -108.8 c -28.2,0 -51,22.85 -51,51.03 0,28.19 22.8,51.04 51,51.04 h 108.8 c 28.2,0 51.1,-22.85 51.1,-51.04 0,-28.18 -22.9,-51.03 -51.1,-51.03" /><path
         id="path100"
         style="fill:#ffffff;fill-opacity:1;fill-rule:nonzero;stroke:none"
         d="m 12705,5068.76 h -1988.7 c -129.5,0 -234.5,-104.99 -234.5,-234.5 v -2.36 h 1988.7 v 2.36 c 0,129.51 105,234.5 234.5,234.5" /><path
         id="path102"
         style="fill:#ef3525;fill-opacity:1;fill-rule:nonzero;stroke:none"
         d="m 12732.4,5013.57 h -87.6 c 30.1,52.32 47.3,112.91 47.3,177.57 v 178.95 h 40.3 c 98.3,0 178.3,-79.97 178.3,-178.26 0,-98.29 -80,-178.26 -178.3,-178.26 z m 0,459.32 h -40.3 v 37.19 h -714.7 v -318.94 c 0,-197.37 160,-357.37 357.4,-357.37 83.6,0 160.5,28.83 221.4,76.99 h 176.2 c 155,0 281.1,126.09 281.1,281.07 0,154.98 -126.1,281.06 -281.1,281.06" /><path
         id="path104"
         style="fill:#f6a78b;fill-opacity:1;fill-rule:nonzero;stroke:none"
         d="m 12797.5,5269.58 h -125.3 c -240.7,0 -435.8,-195.12 -435.8,-435.81 h 996.9 c 0,240.69 -195.1,435.81 -435.8,435.81" /><path
         id="path106"
         style="fill:#172f31;fill-opacity:1;fill-rule:nonzero;stroke:none"
         d="m 10957.2,1278.6 -607.1,181.6 879.6,2529.38 c 88.2,253.54 327.8,423.9 596.2,423.9 h 1841.4 v -5.53 c 0,-302.31 -245.1,-547.38 -547.4,-547.38 h -1209.1 c -33.3,0 -63.1,-21.14 -74,-52.61 L 10957.2,1278.6" /><path
         id="path108"
         style="fill:#f6a78b;fill-opacity:1;fill-rule:nonzero;stroke:none"
         d="M 13365.4,8577.73 H 11652.2 V 7171.86 h 1713.2 v 1405.87" /><path
         id="path110"
         style="fill:#3a1e15;fill-opacity:1;fill-rule:nonzero;stroke:none"
         d="m 12017.8,7662.77 c 0,-72.85 -55.2,-131.9 -123.3,-131.9 -68.2,0 -123.4,59.05 -123.4,131.9 0,72.84 55.2,131.89 123.4,131.89 68.1,0 123.3,-59.05 123.3,-131.89" /><path
         id="path112"
         style="fill:#3a1e15;fill-opacity:1;fill-rule:nonzero;stroke:none"
         d="m 12790.3,7662.77 c 0,-72.85 -55.2,-131.9 -123.3,-131.9 -68.2,0 -123.4,59.05 -123.4,131.9 0,72.84 55.2,131.89 123.4,131.89 68.1,0 123.3,-59.05 123.3,-131.89" /><path
         id="path114"
         style="fill:#6c443a;fill-opacity:1;fill-rule:nonzero;stroke:none"
         d="m 11985.7,8172.4 h -182.4 c -48.2,0 -87.3,-40.55 -87.3,-90.56 h 356.9 c 0,50.01 -39,90.56 -87.2,90.56" /><path
         id="path116"
         style="fill:#6c443a;fill-opacity:1;fill-rule:nonzero;stroke:none"
         d="m 12758.2,8172.4 h -182.4 c -48.2,0 -87.3,-40.55 -87.3,-90.56 h 356.9 c 0,50.01 -39,90.56 -87.2,90.56" /><path
         id="path118"
         style="fill:#6c443a;fill-opacity:1;fill-rule:nonzero;stroke:none"
         d="m 13303.1,7037.3 -0.1,-0.02 0.1,0.17 z m -225.2,1353.33 c 0.6,0.33 0.3,-3.99 0,-11.53 -4.1,-111.88 57.6,-215.91 157.6,-266.17 l 1.8,-0.87 V 7509.8 l -0.3,-108.14 c -0.3,-102.5 -83.7,-185.41 -186.2,-184.99 h -0.1 l -805,-0.47 c -0.8,9.26 -91.3,0 -91.3,0 h -473.3 v 1361.53 h -55.2 v -5.44 -1524.25 -70.02 -167.23 c 0,-61.43 21.6,-120.92 61,-168.06 l 2.5,-2.98 c 97.7,-116.95 68.9,-293.37 -61,-373.13 l -2.5,-1.53 c 0,0 388.7,-0.4 654.6,-0.07 1,0 2,0.07 3,0.07 h 191.4 c 393.6,0 751.7,227.57 918.8,583.91 l 2.8,5.91 v 119.54 97.03 1506.25 l -318.6,-187.1" /><path
         id="path120"
         style="fill:#3a1e15;fill-opacity:1;fill-rule:nonzero;stroke:none"
         d="m 12199.6,7230.01 c -0.5,2.07 -12.9,3.28 -12.9,3.28 0,0 -12.3,-1.21 -12.8,-3.28 L 11528,7064.44 c 52,-202.77 244.2,-328.69 429.2,-281.26 108.8,27.9 190.9,109.6 229.5,213.4 38.6,-103.8 120.7,-185.5 229.6,-213.4 185,-47.43 377.1,78.49 429.1,281.26 l -645.8,165.57" /><path
         id="path122"
         style="fill:#3a1e15;fill-opacity:1;fill-rule:nonzero;stroke:none"
         d="m 12923.7,8389.78 h 210.3 c 8,0 16,0.34 23.9,0.85 h -258.1 c 7.9,-0.51 15.8,-0.85 23.9,-0.85" /><path
         id="path124"
         style="fill:#3a1e15;fill-opacity:1;fill-rule:nonzero;stroke:none"
         d="m 13342.3,9062.43 c -9.6,6.61 -19.6,12.77 -29.9,18.46 -22.5,12.5 -46.5,22.69 -71.6,30.29 -45.3,107.44 -140.1,188.81 -255.8,215.77 -27,6.29 -55.1,9.72 -84,9.72 h -20.7 -189.6 c -14.9,0 -29.6,-0.98 -44,-2.7 h -539.1 -136.3 -23.7 -338.5 c -92.4,0 -172.5,52.48 -212.4,129.21 -105.9,-62.59 -190.2,-157.66 -238.8,-271.74 -29.8,-69.68 -46.2,-146.37 -46.2,-226.92 0,-293.16 217.8,-535.31 500.3,-573.89 5.6,-2.93 11,2.84 16.8,0 h 195.2 1075.8 258.1 c 110.8,7.09 208.4,63.12 271.2,146.81 46.1,61.57 73.5,138.05 73.5,220.93 0,126.25 -63.5,237.63 -160.3,304.06" /><path
         id="path126"
         style="fill:#ef3525;fill-opacity:1;fill-rule:nonzero;stroke:none"
         d="m 13004,7624.95 c 0,-87.44 -71.1,-158.58 -158.6,-158.58 h -261.6 c -93.7,0 -170,76.29 -170,170.04 v 78.11 78.69 32.89 h 590.2 z m -910.6,168.26 v -162.34 c 0,-87.44 -71.1,-158.58 -158.6,-158.58 h -261.5 c -93.8,0 -170.1,76.29 -170.1,170.04 v 183.77 h 590.2 z m 1002.3,124.58 h -773.6 v -124.58 h -137 v 124.58 h -680.9 -92.7 v -72.85 -202.61 c 0,-144.54 117.2,-261.72 261.7,-261.72 h 261.6 c 138.3,0 250.3,112.05 250.3,250.26 v 83.65 h 137 v -72.19 c 0,-144.54 117.2,-261.72 261.7,-261.72 h 261.6 c 138.2,0 250.3,112.05 250.3,250.26 v 199.02 h 417.2 c 0,52.4 -42.2,87.9 -94.6,87.9 h -322.6" /><path
         id="path128"
         style="fill:#f48468;fill-opacity:1;fill-rule:nonzero;stroke:none"
         d="m 12175.9,7714.52 -189.2,-498.32 c 19.8,0 335.4,0 335.4,0 v 498.32 h -146.2" /><path
         id="path130"
         style="fill:#f6a78b;fill-opacity:1;fill-rule:nonzero;stroke:none"
         d="m 13385.3,7829.36 h -54.4 V 7210.2 h 54.4 c 171,0 309.6,138.6 309.6,309.58 0,170.98 -138.6,309.58 -309.6,309.58" /><path
         id="path132"
         style="fill:#f6a78b;fill-opacity:1;fill-rule:nonzero;stroke:none"
         d="m 12175.9,7714.52 -237.8,-498.32 h 99.9 l 178.8,498.32 h -40.9" /><path
         id="path134"
         style="fill:#3d7f33;fill-opacity:1;fill-rule:nonzero;stroke:none"
         d="m 15340.1,5376.28 c 0,-82.48 -66.8,-149.35 -149.3,-149.35 -82.5,0 -149.4,66.87 -149.4,149.35 v 775.95 c 0,82.48 66.9,149.34 149.4,149.34 82.5,0 149.3,-66.86 149.3,-149.34 v -775.95" /><path
         id="path136"
         style="fill:#f6a78b;fill-opacity:1;fill-rule:nonzero;stroke:none"
         d="m 15486.8,5411.73 c 0,-106.05 -86,-192.02 -192,-192.02 h -208 c -106.1,0 -192,85.97 -192,192.02 0,106.04 85.9,192.01 192,192.01 h 208 c 106,0 192,-85.97 192,-192.01" /><path
         id="path138"
         style="fill:#172f31;fill-opacity:1;fill-rule:nonzero;stroke:none"
         d="m 14887.4,5554.42 v -530.9 c 0,-102.64 83.2,-185.85 185.8,-185.85 h 235.2 c 102.6,0 185.8,83.21 185.8,185.85 v 530.9 h -606.8" /><path
         id="path140"
         style="fill:#2a4d22;fill-opacity:1;fill-rule:nonzero;stroke:none"
         d="m 15331.9,6025.38 c -6.8,-6.81 -17.9,-6.81 -24.7,0 -6.8,6.81 -6.8,17.85 0,24.66 l 84.6,84.55 c 6.8,6.81 17.8,6.81 24.6,0 6.8,-6.81 6.8,-17.85 0,-24.66 l -84.5,-84.55" /><path
         id="path142"
         style="fill:#2a4d22;fill-opacity:1;fill-rule:nonzero;stroke:none"
         d="m 15331.9,5903.84 c -6.8,-6.81 -17.9,-6.81 -24.7,0 -6.8,6.81 -6.8,17.85 0,24.66 l 84.6,84.55 c 6.8,6.81 17.8,6.81 24.6,0 6.8,-6.81 6.8,-17.85 0,-24.66 l -84.5,-84.55" /><path
         id="path144"
         style="fill:#2a4d22;fill-opacity:1;fill-rule:nonzero;stroke:none"
         d="m 15331.9,5782.3 c -6.8,-6.81 -17.9,-6.81 -24.7,0 -6.8,6.81 -6.8,17.85 0,24.66 l 84.6,84.55 c 6.8,6.81 17.8,6.81 24.6,0 6.8,-6.81 6.8,-17.85 0,-24.66 l -84.5,-84.55" /><path
         id="path146"
         style="fill:#2a4d22;fill-opacity:1;fill-rule:nonzero;stroke:none"
         d="m 15331.9,5660.76 c -6.8,-6.81 -17.9,-6.81 -24.7,0 -6.8,6.81 -6.8,17.85 0,24.66 l 84.6,84.55 c 6.8,6.81 17.8,6.81 24.6,0 6.8,-6.81 6.8,-17.85 0,-24.66 l -84.5,-84.55" /><path
         id="path148"
         style="fill:#2a4d22;fill-opacity:1;fill-rule:nonzero;stroke:none"
         d="m 15054,6146.92 c 6.8,-6.81 17.9,-6.81 24.7,0 6.8,6.81 6.8,17.85 0,24.66 l -84.6,84.55 c -6.8,6.81 -17.8,6.81 -24.6,0 -6.8,-6.81 -6.8,-17.85 0,-24.66 l 84.5,-84.55" /><path
         id="path150"
         style="fill:#2a4d22;fill-opacity:1;fill-rule:nonzero;stroke:none"
         d="m 15054,6025.38 c 6.8,-6.81 17.9,-6.81 24.7,0 6.8,6.81 6.8,17.85 0,24.66 l -84.6,84.55 c -6.8,6.81 -17.8,6.81 -24.6,0 -6.8,-6.81 -6.8,-17.85 0,-24.66 l 84.5,-84.55" /><path
         id="path152"
         style="fill:#2a4d22;fill-opacity:1;fill-rule:nonzero;stroke:none"
         d="m 15054,5903.84 c 6.8,-6.81 17.9,-6.81 24.7,0 6.8,6.81 6.8,17.85 0,24.66 l -84.6,84.55 c -6.8,6.81 -17.8,6.81 -24.6,0 -6.8,-6.81 -6.8,-17.85 0,-24.66 l 84.5,-84.55" /><path
         id="path154"
         style="fill:#2a4d22;fill-opacity:1;fill-rule:nonzero;stroke:none"
         d="m 15054,5782.3 c 6.8,-6.81 17.9,-6.81 24.7,0 6.8,6.81 6.8,17.85 0,24.66 l -84.6,84.55 c -6.8,6.81 -17.8,6.81 -24.6,0 -6.8,-6.81 -6.8,-17.85 0,-24.66 l 84.5,-84.55" /><path
         id="path156"
         style="fill:#2a4d22;fill-opacity:1;fill-rule:nonzero;stroke:none"
         d="m 15054,5660.76 c 6.8,-6.81 17.9,-6.81 24.7,0 6.8,6.81 6.8,17.85 0,24.66 l -84.6,84.55 c -6.8,6.81 -17.8,6.81 -24.6,0 -6.8,-6.81 -6.8,-17.85 0,-24.66 l 84.5,-84.55" /><path
         id="path158"
         style="fill:#2a4d22;fill-opacity:1;fill-rule:nonzero;stroke:none"
         d="m 15208.2,6043.8 c 0,-9.62 -7.8,-17.42 -17.4,-17.42 -9.6,0 -17.4,7.8 -17.4,17.42 v 41.8 c 0,9.62 7.8,17.42 17.4,17.42 9.6,0 17.4,-7.8 17.4,-17.42 v -41.8" /><path
         id="path160"
         style="fill:#2a4d22;fill-opacity:1;fill-rule:nonzero;stroke:none"
         d="m 15208.2,5912.84 c 0,-9.62 -7.8,-17.42 -17.4,-17.42 -9.6,0 -17.4,7.8 -17.4,17.42 v 41.8 c 0,9.63 7.8,17.43 17.4,17.43 9.6,0 17.4,-7.8 17.4,-17.43 v -41.8" /><path
         id="path162"
         style="fill:#2a4d22;fill-opacity:1;fill-rule:nonzero;stroke:none"
         d="m 15208.2,5781.89 c 0,-9.63 -7.8,-17.43 -17.4,-17.43 -9.6,0 -17.4,7.8 -17.4,17.43 v 41.79 c 0,9.63 7.8,17.43 17.4,17.43 9.6,0 17.4,-7.8 17.4,-17.43 v -41.79" /><path
         id="path164"
         style="fill:#2a4d22;fill-opacity:1;fill-rule:nonzero;stroke:none"
         d="m 15208.2,5650.93 c 0,-9.63 -7.8,-17.43 -17.4,-17.43 -9.6,0 -17.4,7.8 -17.4,17.43 v 41.8 c 0,9.62 7.8,17.42 17.4,17.42 9.6,0 17.4,-7.8 17.4,-17.42 v -41.8" /><path
         id="path166"
         style="fill:#2a4d22;fill-opacity:1;fill-rule:nonzero;stroke:none"
         d="m 15345.1,6163.63 c -39,-39 -102.3,-39 -141.3,0 -39,39 -39,102.24 0,141.24 l 139.3,139.27 c 39,39 102.2,39 141.2,0 39,-39 39,-102.24 0,-141.24 l -139.2,-139.27" /><path
         id="path168"
         style="fill:#ef3525;fill-opacity:1;fill-rule:nonzero;stroke:none"
         d="m 15561.7,6402.56 c 32.8,32.85 32.8,86.1 0,118.94 -32.9,32.84 -86.1,32.84 -118.9,0 -32.9,32.84 -86.1,32.84 -119,0 -32.8,-32.84 -32.8,-86.09 0,-118.94 -32.8,-32.84 -32.8,-86.09 0,-118.94 32.9,-32.84 86.1,-32.84 119,0 32.8,-32.84 86,-32.84 118.9,0 32.8,32.85 32.8,86.1 0,118.94" /><path
         id="path170"
         style="fill:#ffffff;fill-opacity:1;fill-rule:nonzero;stroke:none"
         d="m 15442.8,6450.45 c -12.8,0 -24.9,-4.97 -33.9,-14.02 -18.7,-18.67 -18.7,-49.06 0,-67.74 9,-9.04 21.1,-14.03 33.9,-14.03 12.7,0 24.8,4.99 33.8,14.03 18.7,18.68 18.7,49.07 0,67.74 -9,9.05 -21.1,14.02 -33.8,14.02 z m 0,-137.31 c -23.9,0 -46.4,9.31 -63.3,26.19 -34.8,34.87 -34.8,91.6 0,126.46 16.9,16.89 39.4,26.19 63.3,26.19 23.8,0 46.3,-9.3 63.2,-26.19 34.8,-34.86 34.8,-91.59 0,-126.46 -16.9,-16.88 -39.4,-26.19 -63.2,-26.19" /><path
         id="path172"
         style="fill:#ecf1f1;fill-opacity:1;fill-rule:nonzero;stroke:none"
         d="M 8874.41,1439.6 H 7368.38 v 234.6 h 1506.03 v -234.6" /><path
         id="path174"
         style="fill:#ecf1f1;fill-opacity:1;fill-rule:nonzero;stroke:none"
         d="m 15943.8,1439.6 h -1506 v 234.6 h 1506 v -234.6" /><path
         id="path176"
         style="fill:#555658;fill-opacity:1;fill-rule:nonzero;stroke:none"
         d="m 13502.6,7269.88 c -20.2,0 -36.6,-16.41 -36.6,-36.59 0,-20.17 16.4,-36.58 36.6,-36.58 20.2,0 36.6,16.41 36.6,36.58 0,20.18 -16.4,36.59 -36.6,36.59 z m 0,-117.47 c -44.6,0 -80.9,36.28 -80.9,80.88 0,44.6 36.3,80.89 80.9,80.89 44.6,0 80.9,-36.29 80.9,-80.89 0,-44.6 -36.3,-80.88 -80.9,-80.88" /><path
         id="path178"
         style="fill:#131916;fill-opacity:1;fill-rule:nonzero;stroke:none"
         d="m 9299.66,4928.44 c 0,-51.38 -41.65,-93.03 -93.03,-93.03 h -846.51 c -51.38,0 -93.03,41.65 -93.03,93.03 0,51.38 41.65,93.03 93.03,93.03 h 846.51 c 51.38,0 93.03,-41.65 93.03,-93.03" /><path
         id="path180"
         style="fill:#555658;fill-opacity:1;fill-rule:nonzero;stroke:none"
         d="m 8152.23,5672.63 c -462.38,0 -837.22,-374.83 -837.22,-837.22 h 1674.44 c 0,462.39 -374.83,837.22 -837.22,837.22" /><path
         id="path182"
         style="fill:#555658;fill-opacity:1;fill-rule:nonzero;stroke:none"
         d="m 8083.91,4310.44 c -15.51,0 -31.02,6.05 -42.66,18.09 -22.76,23.56 -22.11,61.12 1.44,83.87 l 32.35,31.25 c 12.37,11.95 18.69,27.97 17.81,45.14 -0.89,17.16 -8.82,32.46 -22.33,43.07 l -1.69,1.35 c -9.97,7.83 -22.83,12.28 -35.89,12.28 h -421.52 c -163.4,0 -296.35,132.95 -296.35,296.35 v 2.39 c 0,32.76 26.55,59.31 59.31,59.31 32.76,0 59.31,-26.55 59.31,-59.31 v -2.39 c 0,-98 79.72,-177.73 177.73,-177.73 h 421.52 c 39.5,0 78.37,-13.44 109.45,-37.84 l 1.71,-1.36 c 39.98,-31.41 64.59,-78.89 67.2,-130.05 2.63,-51.16 -17,-100.91 -53.84,-136.52 l -32.34,-31.25 c -11.52,-11.12 -26.37,-16.65 -41.21,-16.65" /><path
         id="path184"
         style="fill:#454547;fill-opacity:1;fill-rule:nonzero;stroke:none"
         d="m 9197.56,5284.95 c 1.06,-9.04 9.25,-15.5 18.29,-14.44 l 157.07,18.49 c 9.04,1.06 15.5,9.25 14.44,18.29 -1.06,9.03 -9.25,15.5 -18.29,14.43 l -157.08,-18.49 c -9.03,-1.06 -15.5,-9.25 -14.43,-18.28" /><path
         id="path186"
         style="fill:#454547;fill-opacity:1;fill-rule:nonzero;stroke:none"
         d="m 9387.36,5161.38 c -1.06,-9.03 -9.25,-15.5 -18.29,-14.43 l -157.08,18.48 c -9.03,1.07 -15.5,9.26 -14.43,18.29 1.06,9.04 9.25,15.5 18.29,14.44 l 157.07,-18.49 c 9.04,-1.06 15.5,-9.25 14.44,-18.29" /><path
         id="path188"
         style="fill:#454547;fill-opacity:1;fill-rule:nonzero;stroke:none"
         d="m 9196.9,5234.33 c 0,-9.1 7.38,-16.47 16.48,-16.47 h 158.16 c 9.1,0 16.47,7.37 16.47,16.47 0,9.1 -7.37,16.48 -16.47,16.48 h -158.16 c -9.1,0 -16.48,-7.38 -16.48,-16.48" /><path
         id="path190"
         style="fill:#555658;fill-opacity:1;fill-rule:nonzero;stroke:none"
         d="m 9281.5,5341.01 c 0,-176.48 -143.06,-319.54 -319.54,-319.54 -176.48,0 -319.54,143.06 -319.54,319.54 0,176.48 143.06,319.55 319.54,319.55 176.48,0 319.54,-143.07 319.54,-319.55" /><path
         id="path192"
         style="fill:#555658;fill-opacity:1;fill-rule:nonzero;stroke:none"
         d="m 8843.24,5469.89 h 402.02 v 306.65 z" /><path
         id="path194"
         style="fill:#555658;fill-opacity:1;fill-rule:nonzero;stroke:none"
         d="m 9078.59,5469.89 h -402.03 v 306.65 z" /><path
         id="path196"
         style="fill:#131916;fill-opacity:1;fill-rule:nonzero;stroke:none"
         d="m 8948.6,5280.61 c -44.17,0 -80.1,35.93 -80.1,80.1 0,8.66 7.02,15.68 15.67,15.68 8.66,0 15.68,-7.02 15.68,-15.68 0,-26.88 21.86,-48.75 48.75,-48.75 26.89,0 48.77,21.87 48.77,48.75 0,8.66 7.02,15.68 15.67,15.68 8.66,0 15.68,-7.02 15.68,-15.68 0,-44.17 -35.94,-80.1 -80.12,-80.1" /><path
         id="path198"
         style="fill:#131916;fill-opacity:1;fill-rule:nonzero;stroke:none"
         d="m 9165.14,5280.61 c -44.17,0 -80.1,35.93 -80.1,80.1 0,8.66 7.02,15.68 15.67,15.68 8.66,0 15.68,-7.02 15.68,-15.68 0,-26.88 21.87,-48.75 48.75,-48.75 26.89,0 48.77,21.87 48.77,48.75 0,8.66 7.02,15.68 15.67,15.68 8.66,0 15.68,-7.02 15.68,-15.68 0,-44.17 -35.94,-80.1 -80.12,-80.1" /><path
         id="path200"
         style="fill:#656769;fill-opacity:1;fill-rule:nonzero;stroke:none"
         d="m 8820.61,5268.47 c -1.06,-9.04 -9.25,-15.5 -18.28,-14.43 l -157.08,18.48 c -9.04,1.07 -15.5,9.25 -14.44,18.29 1.07,9.04 9.25,15.5 18.29,14.44 l 157.08,-18.49 c 9.03,-1.06 15.5,-9.25 14.43,-18.29" /><path
         id="path202"
         style="fill:#656769;fill-opacity:1;fill-rule:nonzero;stroke:none"
         d="m 8630.81,5144.91 c 1.07,-9.04 9.25,-15.5 18.29,-14.44 l 157.08,18.49 c 9.03,1.06 15.5,9.25 14.43,18.29 -1.06,9.03 -9.25,15.5 -18.28,14.43 l -157.08,-18.48 c -9.04,-1.07 -15.5,-9.26 -14.44,-18.29" /><path
         id="path204"
         style="fill:#656769;fill-opacity:1;fill-rule:nonzero;stroke:none"
         d="m 8821.27,5217.86 c 0,-9.1 -7.38,-16.48 -16.48,-16.48 h -158.16 c -9.1,0 -16.47,7.38 -16.47,16.48 0,9.1 7.37,16.47 16.47,16.47 h 158.16 c 9.1,0 16.48,-7.37 16.48,-16.47" /><path
         id="path206"
         style="fill:#555658;fill-opacity:1;fill-rule:nonzero;stroke:none"
         d="m 9085.04,4928.44 c 0,-51.38 -41.65,-93.03 -93.03,-93.03 H 8145.5 c -51.38,0 -93.03,41.65 -93.03,93.03 0,51.38 41.65,93.03 93.03,93.03 h 846.51 c 51.38,0 93.03,-41.65 93.03,-93.03" /><path
         id="path208"
         style="fill:#A52323;fill-opacity:1;fill-rule:nonzero;stroke:none"
         d="m 14384.3,9702.2 h -113.7 v -178.12 c -15.6,5.75 -33.4,7.28 -52,2.07 -31.3,-8.75 -55.5,-35.32 -60.6,-67.35 -8.6,-53 32.1,-98.79 83.5,-98.79 43.9,0 79.9,33.38 84.2,76.12 v 0 0.05 c 0.3,2.8 0.4,5.63 0.4,8.49 0,2.87 -0.1,5.7 -0.4,8.49 v 133.91 c 0,21.83 17.7,39.52 39.5,39.52 h 93.9 v 0.76 c 0,41.34 -33.5,74.85 -74.8,74.85" /><path
         id="path210"
         style="fill:#A52323;fill-opacity:1;fill-rule:nonzero;stroke:none"
         d="m 14714.4,10279.5 -101.6,-101.6 27.1,-27.2 40.5,-40.5 91.7,-91.7 c -19.2,-8.9 -36.4,-23.35 -48.4,-44.7 -20.1,-35.77 -18,-81.2 6,-114.48 39.8,-55.08 117.1,-59.63 163.1,-13.66 39.3,39.25 41.7,101.38 7.3,143.45 v 0 l -0.1,0.05 c -2.2,2.75 -4.6,5.41 -7.2,7.98 -2.5,2.56 -5.2,4.96 -8,7.26 l -119.8,119.8 c -19.5,19.5 -19.5,51.1 0,70.7 l 84,83.9 -0.7,0.7 c -36.9,37 -96.9,37 -133.9,0" /></g></g></svg>