<?xml version="1.0" encoding="UTF-8" standalone="no"?>
<svg
   xmlns:dc="http://purl.org/dc/elements/1.1/"
   xmlns:cc="http://creativecommons.org/ns#"
   xmlns:rdf="http://www.w3.org/1999/02/22-rdf-syntax-ns#"
   xmlns:svg="http://www.w3.org/2000/svg"
   xmlns="http://www.w3.org/2000/svg"
   viewBox="0 0 2400 1600"
   height="1600"
   width="2400"
   xml:space="preserve"
   id="svg2"
   version="1.1"><metadata
     id="metadata8"><rdf:RDF><cc:Work
         rdf:about=""><dc:format>image/svg+xml</dc:format><dc:type
           rdf:resource="http://purl.org/dc/dcmitype/StillImage" /></cc:Work></rdf:RDF></metadata><defs
     id="defs6" /><g
     transform="matrix(1.3333333,0,0,-1.3333333,0,1600)"
     id="g10"><g
       transform="scale(0.1)"
       id="g12"><g
         transform="scale(1.10429)"
         id="g14"><path
           id="path16"
           style="fill:#48bbc6;fill-opacity:1;fill-rule:nonzero;stroke:none"
           d="M 16300,0 H 0 V 10866.7 H 16300 V 0" /></g><g
         transform="scale(1.10429)"
         id="g18"><path
           id="path20"
           style="fill:#48bbc6;fill-opacity:1;fill-rule:nonzero;stroke:none"
           d="M 16300,0 H 0 V 5204.73 H 16300 V 0" /></g><g
         transform="scale(1.08842)"
         id="g22"><path
           id="path24"
           style="fill:#6acdcd;fill-opacity:1;fill-rule:nonzero;stroke:none"
           d="M 16300,5280.66 H 5273.62 c 3.47,717.99 551.78,1345.82 1281.87,1489.55 80.07,390.17 425.39,683.61 839.25,683.61 86.61,0 170.19,-12.89 248.98,-36.78 259.77,1126.39 1268.92,1966.22 2474.28,1966.22 651.4,0 1245.5,-245.43 1694.9,-648.73 72,10.75 145.5,16.37 220.4,16.37 764.6,0 1393.6,-580.42 1470.4,-1324.67 516.9,-74.97 933.6,-458.86 1056.9,-958.38 142.8,55.04 297.9,85.28 460,85.28 704.3,0 1275.6,-569.09 1279.4,-1272.47" /></g><g
         transform="scale(1.08842)"
         id="g26"><path
           id="path28"
           style="fill:#6acdcd;fill-opacity:1;fill-rule:nonzero;stroke:none"
           d="M 16300,5273.73 H 5273.61 c 0,2.29 0,4.64 0.01,6.93 H 16300 c 0,-2.32 0,-4.6 0,-6.93" /></g><g
         transform="scale(1.10429)"
         id="g30"><path
           id="path32"
           style="fill:#3d9eab;fill-opacity:1;fill-rule:nonzero;stroke:none"
           d="m 16293.8,5287.62 c -204.6,0 -387,75.03 -505.4,192.1 -118.4,-117.07 -300.8,-192.1 -505.4,-192.1 -204.6,0 -387,75.03 -505.3,192.1 -115.8,-114.43 -292.7,-188.49 -491.7,-191.78 -4.9,-0.1 -9.8,-0.29 -14.8,-0.3 -204.2,0.26 -386.1,75.21 -504.3,192.08 l -1.2,-1.06 -1.1,1.06 c -118.2,-116.88 -300.2,-191.84 -504.4,-192.08 -3.1,0.01 -6.2,0.13 -9.3,0.17 -7.1,0.07 -14.2,0.24 -21.3,0.49 -8.1,0.32 -16.3,0.73 -24.3,1.29 -182.5,11.92 -343.6,83.48 -451.5,190.13 -118.4,-117.07 -300.7,-192.1 -505.3,-192.1 -204.6,0 -387,75.03 -505.4,192.1 -118.4,-117.07 -300.8,-192.1 -505.4,-192.1 -204.6,0 -387,75.03 -505.3,192.1 -118.5,-117.07 -300.9,-192.1 -505.4,-192.1 -204.7,0 -387.05,75.03 -505.41,192.1 -118.45,-117.07 -300.82,-192.1 -505.39,-192.1 -204.63,0 -386.99,75.03 -505.41,192.1 -118.41,-117.07 -300.78,-192.1 -505.38,-192.1 -204.6,0 -386.96,75.03 -505.38,192.1 -117.75,-116.41 -298.76,-191.18 -501.97,-192.03 -1.23,0 -2.43,-0.06 -3.66,-0.07 -204.5,0.07 -386.77,75.08 -505.13,192.1 l -0.28,-0.27 -0.28,0.27 c -118.37,-117.02 -300.64,-192.04 -505.14,-192.1 l -2.32,0.05 c -10.24,0.02 -20.41,0.29 -30.54,0.69 -5.28,0.22 -10.54,0.53 -15.8,0.84 -184.79,10.82 -347.99,82.78 -456.97,190.52 -118.42,-117.07 -300.78,-192.1 -505.38,-192.1 -204.6,0 -386.97,75.03 -505.38,192.1 -118.42,-117.07 -300.78,-192.1 -505.38,-192.1 -204.6,0 -386.97,75.03 -505.38,192.1 -118.42,-117.07 -300.79,-192.1 -505.39,-192.1 -204.61,0 -386.97,75.03 -505.39,192.1 -118.41,-117.07 -300.77,-192.1 -505.38,-192.1 -204.6,0 -386.97,75.03 -505.38,192.1 -118.42,-117.07 -300.78,-192.1 -505.38,-192.1 -204.602,0 -386.969,75.03 -505.385,192.1 -118.419,-117.07 -300.782,-192.1 -505.385,-192.1 -40.5763,0 -80.2262,3.06 -118.73,8.71 V 4191.98 h 6126.33 1100.1 5977.47 1098.4 1997.7 v 1095.79 c -2.1,-0.02 -4.2,-0.15 -6.2,-0.15" /></g><g
         transform="scale(1.10429)"
         id="g34"><path
           id="path36"
           style="fill:#3d9eab;fill-opacity:1;fill-rule:nonzero;stroke:none"
           d="M 13203.9,4798.37 H 7226.43 6126.33 0 V 0 h 16300 v 4798.37 h -1997.7 -1098.4" /></g><g
         transform="scale(1.10429)"
         id="g38"><path
           id="path40"
           style="fill:#6c443a;fill-opacity:1;fill-rule:nonzero;stroke:none"
           d="M 16300,2206.53 H 6579.24 V 3666.77 H 16300 V 2206.53" /></g><g
         transform="scale(1.10429)"
         id="g42"><path
           id="path44"
           style="fill:#3a1e15;fill-opacity:1;fill-rule:nonzero;stroke:none"
           d="M 16300,2206.53 H 15204.3 14630.8 8218.73 7645.22 6579.24 v -421.77 h 1954.88 v -642.13 h 573.51 v 642.13 h 4592.17 v -642.13 h 573.5 v 642.13 H 16300 v 421.77" /></g><path
         id="path46"
         style="fill:#9dded6;fill-opacity:1;fill-rule:nonzero;stroke:none"
         d="m 15474.5,1123.3 v 0 0 z" /><path
         id="path48"
         style="fill:#9dded6;fill-opacity:1;fill-rule:nonzero;stroke:none"
         d="m 11009.8,1123.3 h -0.6 l 0.3,-0.3 z" /><path
         id="path50"
         style="fill:#4bb0b7;fill-opacity:1;fill-rule:nonzero;stroke:none"
         d="m 6055.86,1332.6 c -225.94,0 -427.32,82.9 -558.09,212.2 H 6613.95 C 6483.19,1415.5 6281.8,1332.6 6055.86,1332.6" /><path
         id="path52"
         style="fill:#4bb0b7;fill-opacity:1;fill-rule:nonzero;stroke:none"
         d="m 14916.4,855.102 c -225.9,0 -427.3,82.8 -558.1,212.098 h 1116.2 c -130.7,-129.298 -332.1,-212.098 -558.1,-212.098" /><g
         transform="scale(1.01783)"
         id="g54"><path
           id="path56"
           style="fill:#4bb0b7;fill-opacity:1;fill-rule:nonzero;stroke:none"
           d="m 15751.7,840.119 c -222,0 -419.8,81.35 -548.3,208.381 H 16300 c -128.5,-127.031 -326.3,-208.381 -548.3,-208.381" /></g><path
         id="path58"
         style="fill:#4bb0b7;fill-opacity:1;fill-rule:nonzero;stroke:none"
         d="m 4870.18,855.102 c -225.94,0 -427.32,82.8 -558.09,212.098 H 5428.27 C 5297.51,937.902 5096.12,855.102 4870.18,855.102" /><path
         id="path60"
         style="fill:#4bb0b7;fill-opacity:1;fill-rule:nonzero;stroke:none"
         d="m 8624.36,855.102 c -225.95,0 -427.33,82.8 -558.1,212.098 H 9182.45 C 9051.68,937.902 8850.3,855.102 8624.36,855.102" /><path
         id="path62"
         style="fill:#4bb0b7;fill-opacity:1;fill-rule:nonzero;stroke:none"
         d="M 10857.1,855.102 C 10631.2,855.199 10430,938 10299.2,1067.2 h 1116.2 c -130,-128.501 -329.9,-211.098 -554.3,-212.001 -1.3,0 -2.7,-0.097 -4,-0.097" /><path
         id="path64"
         style="fill:#4bb0b7;fill-opacity:1;fill-rule:nonzero;stroke:none"
         d="m 9740.81,855.102 h -2.56 c -11.31,0.097 -22.54,0.398 -33.72,0.796 -5.84,0.204 -11.65,0.602 -17.46,0.903 -204.06,12 -384.28,91.398 -504.62,210.399 H 10298.6 C 10167.9,938 9966.64,855.199 9740.81,855.102" /><path
         id="path66"
         style="fill:#4bb0b7;fill-opacity:1;fill-rule:nonzero;stroke:none"
         d="M 1278.72,855.102 C 1090.81,855.102 923.328,924 814.578,1031.5 H 1742.85 C 1634.1,924 1466.62,855.102 1278.72,855.102" /><path
         id="path68"
         style="fill:#4bb0b7;fill-opacity:1;fill-rule:nonzero;stroke:none"
         d="m 13173.9,427 c -187.9,0 -355.4,69 -464.1,176.5 h 928.3 C 13529.3,496 13361.8,427 13173.9,427" /><path
         id="path70"
         style="fill:#4bb0b7;fill-opacity:1;fill-rule:nonzero;stroke:none"
         d="m 2749.51,427 c -187.9,0 -355.38,69 -464.14,176.5 h 928.28 C 3104.9,496 2937.42,427 2749.51,427" /><path
         id="path72"
         style="fill:#4bb0b7;fill-opacity:1;fill-rule:nonzero;stroke:none"
         d="m 7776.71,427 c -187.91,0 -355.39,69 -464.14,176.5 h 928.28 C 8132.09,496 7964.61,427 7776.71,427" /><path
         id="path74"
         style="fill:#4bb0b7;fill-opacity:1;fill-rule:nonzero;stroke:none"
         d="m 14358.3,427 c -187.9,0 -355.3,69 -464.1,176.5 h 928.3 C 14713.7,496 14546.3,427 14358.3,427" /><g
         transform="scale(1.05935)"
         id="g76"><path
           id="path78"
           style="fill:#4bb0b7;fill-opacity:1;fill-rule:nonzero;stroke:none"
           d="m 15861.8,403.077 c -177.4,0 -335.5,65.135 -438.1,166.612 h 876.3 c -102.7,-101.477 -260.8,-166.612 -438.2,-166.612" /></g><path
         id="path80"
         style="fill:#4bb0b7;fill-opacity:1;fill-rule:nonzero;stroke:none"
         d="m 3270.25,2535.61 c -187.91,0 -355.39,68.91 -464.14,176.42 h 928.27 c -108.75,-107.51 -276.23,-176.42 -464.13,-176.42" /><path
         id="path82"
         style="fill:#4bb0b7;fill-opacity:1;fill-rule:nonzero;stroke:none"
         d="m 4089.26,2127.19 c -187.9,0 -355.39,68.91 -464.14,176.42 h 928.27 C 4444.64,2196.1 4277.16,2127.19 4089.26,2127.19" /><path
         id="path84"
         style="fill:#6acdcd;fill-opacity:1;fill-rule:nonzero;stroke:none"
         d="m 3235.78,7719.9 h -720.03 c 0,198.83 161.19,360.01 360.02,360.01 198.83,0 360.01,-161.18 360.01,-360.01" /><path
         id="path86"
         style="fill:#3d9eab;fill-opacity:1;fill-rule:nonzero;stroke:none"
         d="m 4369.36,10324.1 347.1,161.3 c -26.66,57.3 -126.07,67.7 -222.04,23.1 -62.92,-29.3 -108.74,-74.8 -125.32,-119 -16.59,44.2 -62.41,89.7 -125.33,119 -95.97,44.6 -195.38,34.2 -222.04,-23.1 l 347.1,-161.3 0.09,-0.2 h 0.18 0.17 l 0.09,0.2" /><path
         id="path88"
         style="fill:#3d9eab;fill-opacity:1;fill-rule:nonzero;stroke:none"
         d="m 3332.66,9889.82 347.09,161.28 c -26.65,57.4 -126.06,67.7 -222.03,23.1 -62.93,-29.2 -108.74,-74.81 -125.33,-118.91 -16.58,44.1 -62.4,89.71 -125.32,118.91 -95.97,44.6 -195.38,34.3 -222.04,-23.1 l 347.1,-161.28 0.08,-0.2 0.18,0.08 0.18,-0.08 0.09,0.2" /><path
         id="path90"
         style="fill:#6acdcd;fill-opacity:1;fill-rule:nonzero;stroke:none"
         d="m 2288.23,8519.18 h -709.75 c 0,195.99 158.88,354.87 354.88,354.87 195.99,0 354.87,-158.88 354.87,-354.87" /><path
         id="path92"
         style="fill:#6acdcd;fill-opacity:1;fill-rule:nonzero;stroke:none"
         d="M 6260.2,9382.53 H 4735.35 c 0,162.02 131.34,293.37 293.36,293.37 36.58,0 71.57,-6.75 103.86,-18.98 99.39,191.74 299.53,322.83 530.4,322.83 329.84,0 597.23,-267.38 597.23,-597.22" /><path
         id="path94"
         style="fill:#c06455;fill-opacity:1;fill-rule:nonzero;stroke:none"
         d="m 13254.9,4654.15 c 0,-131.72 -106.8,-238.5 -238.5,-238.5 H 12652 c -131.7,0 -238.5,106.78 -238.5,238.5 v 25.18 c 0,131.72 106.8,238.49 238.5,238.49 h 364.4 c 131.7,0 238.5,-106.77 238.5,-238.49 v -25.18" /><path
         id="path96"
         style="fill:#f6a78b;fill-opacity:1;fill-rule:nonzero;stroke:none"
         d="m 13074.1,5182.34 c -80.9,0 -154.2,55.36 -173.6,137.53 -22.8,95.99 36.7,192.23 132.7,214.94 499.7,118.23 832.5,387.98 989.1,801.75 116.4,307.58 90.3,587.1 90,589.83 -10.6,98.07 60.3,186.2 158.4,196.83 98.1,10.57 186.2,-60.25 196.8,-158.33 1.6,-14.64 37.2,-363.16 -111.1,-754.8 -138.3,-365.43 -465.9,-839.55 -1241,-1022.92 -13.8,-3.27 -27.7,-4.83 -41.3,-4.83" /><path
         id="path98"
         style="fill:#ffffff;fill-opacity:1;fill-rule:nonzero;stroke:none"
         d="m 14087.1,6975.01 c 0,0 -32.1,-392.14 -82,-575.55 l 337.4,-59.54 91.3,543.8 -346.7,91.29" /><path
         id="path100"
         style="fill:#5d3635;fill-opacity:1;fill-rule:nonzero;stroke:none"
         d="m 16046.1,3299.88 c 0,-103.92 -84.3,-188.16 -188.2,-188.16 H 9447.3 c -103.91,0 -188.16,84.24 -188.16,188.16 0,103.91 84.25,188.16 188.16,188.16 h 6410.6 c 103.9,0 188.2,-84.25 188.2,-188.16" /><g
         transform="scale(1.024)"
         id="g102"><path
           id="path104"
           style="fill:#ffffff;fill-opacity:1;fill-rule:nonzero;stroke:none"
           d="m 15264.9,3893.64 h -2089.2 l 1178.5,3021.27 h 1682.7 L 16300,6717.16 15264.9,3893.64" /></g><g
         transform="scale(1.00747)"
         id="g106"><path
           id="path108"
           style="fill:#cdccca;fill-opacity:1;fill-rule:nonzero;stroke:none"
           d="m 15338.7,4386.43 h -1779.5 l 1030.5,2641.92 H 16300 l -961.3,-2641.92" /></g><path
         id="path110"
         style="fill:#a82a21;fill-opacity:1;fill-rule:nonzero;stroke:none"
         d="M 14477.3,4413.71 H 12961 v 482.31 h 1516.3 v -482.31" /><path
         id="path112"
         style="fill:#cdccca;fill-opacity:1;fill-rule:nonzero;stroke:none"
         d="m 15466.5,7083.2 -0.7,-2.25 0.1,-0.08 z" /><path
         id="path114"
         style="fill:#9f9f9e;fill-opacity:1;fill-rule:nonzero;stroke:none"
         d="m 14001.1,3376.14 h -372.5 v 610.94 h 372.5 v -610.94" /><path
         id="path116"
         style="fill:#f6a78b;fill-opacity:1;fill-rule:nonzero;stroke:none"
         d="m 10609.9,4418.28 -101.9,386.81 1634.3,430.45 c 315.7,83.16 649.8,84.36 966.1,3.52 l 976.7,-249.66 -99.1,-387.54 -976.7,249.66 c -250.5,64.03 -515.1,63.06 -765.1,-2.79 l -1634.3,-430.45" /><path
         id="path118"
         style="fill:#ffffff;fill-opacity:1;fill-rule:nonzero;stroke:none"
         d="M 15268.1,3987.08 H 9554.58 v 432.13 h 5713.52 v -432.13" /><path
         id="path120"
         style="fill:#cdccca;fill-opacity:1;fill-rule:nonzero;stroke:none"
         d="M 11256.6,3987.08 H 9554.58 v 432.13 h 1702.02 v -432.13" /><path
         id="path122"
         style="fill:#5bc133;fill-opacity:1;fill-rule:nonzero;stroke:none"
         d="m 15121.6,5254.76 c 0,-6.57 -5.3,-11.89 -11.9,-11.89 -6.5,0 -11.8,5.32 -11.8,11.89 0,6.56 5.3,11.88 11.8,11.88 6.6,0 11.9,-5.32 11.9,-11.88" /><path
         id="path124"
         style="fill:#ef3525;fill-opacity:1;fill-rule:nonzero;stroke:none"
         d="m 13977.8,5266.64 -64.3,-147.27 -839.4,62.97 -80.3,-408.39 1294,-340.35 c 15.8,-4.13 31.6,-7.51 47.7,-10.03 l 0.3,-0.05 30.5,-4.15 c 371.3,-43.72 734,178.54 773.8,554.64 l -1162.3,292.63" /><path
         id="path126"
         style="fill:#ffffff;fill-opacity:1;fill-rule:nonzero;stroke:none"
         d="m 15404.1,7124.27 -1097.3,-260.4 -12.5,-361.77 c -14.1,-409.28 -124.7,-809.43 -322.8,-1167.82 l -94.8,-171.41 1244.9,-431.83 176.3,382.44 c 229.5,497.88 295.7,1055.6 189,1593.36 l -82.8,417.43" /><path
         id="path128"
         style="fill:#9f9f9e;fill-opacity:1;fill-rule:nonzero;stroke:none"
         d="m 14839.9,5130.59 c 0,-31.41 -25.5,-56.87 -56.9,-56.87 h -2429.6 c -31.4,0 -56.8,25.46 -56.8,56.87 0,31.41 25.4,56.86 56.8,56.86 H 14783 c 31.4,0 56.9,-25.45 56.9,-56.86" /><path
         id="path130"
         style="fill:#818283;fill-opacity:1;fill-rule:nonzero;stroke:none"
         d="m 14087.1,5109.95 h -115.6 v 41.28 h 115.6 v -41.28" /><path
         id="path132"
         style="fill:#818283;fill-opacity:1;fill-rule:nonzero;stroke:none"
         d="m 14272.9,5109.95 h -115.6 v 41.28 h 115.6 v -41.28" /><path
         id="path134"
         style="fill:#9f9f9e;fill-opacity:1;fill-rule:nonzero;stroke:none"
         d="m 13873.1,5134.77 -0.1,0.01 c 4.2,8.56 5.7,18.4 3.7,28.09 l -228.4,1118.29 c -3.6,17.47 -17.4,30.63 -34.5,33.7 v 0.01 0 c -2.4,0.42 -4.8,0.63 -7.2,0.66 -30.1,2.16 -87.1,-0.06 -87.1,-0.06 l 49.1,-78.42 215.2,-1062.27 v 0 l -33.2,-101.06 c 0,0 91.7,4.64 121.3,58.92 l 1,1.82 0.2,0.31" /><path
         id="path136"
         style="fill:#ffffff;fill-opacity:1;fill-rule:nonzero;stroke:none"
         d="m 13750.6,5073.72 h -1402.4 c -34.9,0 -65,24.6 -71.9,58.81 l -222.7,1098.95 c -8.8,43.45 24.4,84.07 68.8,84.07 h 1395.1 c 20.5,0 38.1,-14.41 42.2,-34.46 l 233.9,-1154.78 c 5.6,-27.18 -15.2,-52.59 -43,-52.59" /><path
         id="path138"
         style="fill:#2a4d22;fill-opacity:1;fill-rule:nonzero;stroke:none"
         d="m 13270.8,3505.28 h -102.3 c -77.1,0 -139.6,62.51 -139.6,139.62 0,3.04 0.1,6.06 0.3,9.06 h 0.9 l -0.9,0.19 c -13.7,3.04 -27.9,4.82 -42.3,5.1 l -70.3,1.34 c -181.6,3.48 -331.3,-145.78 -334.5,-310.07 l 263,-0.48 656,0.48 v 163.82 0.6 c -0.2,31.05 -26.3,55.77 -57.3,55.77 h -23.8 c -17,0 -33.4,-7.31 -44.2,-20.45 -20.4,-24.92 -53,-44.98 -105,-44.98" /><path
         id="path140"
         style="fill:#23381d;fill-opacity:1;fill-rule:nonzero;stroke:none"
         d="m 13501.1,3310.85 h -971.6 v 73.69 h 971.6 v -73.69" /><path
         id="path142"
         style="fill:#3d7f33;fill-opacity:1;fill-rule:nonzero;stroke:none"
         d="m 13615.9,3392.43 h -102.2 c -77.1,0 -139.7,62.51 -139.7,139.62 0,3.04 0.2,6.06 0.4,9.06 h 0.9 l -0.9,0.19 c -13.8,3.03 -27.9,4.82 -42.4,5.1 l -70.2,1.34 c -181.6,3.48 -331.4,-145.78 -334.5,-310.08 l 262.9,-0.47 656,0.47 v 163.83 0.6 c -0.1,31.05 -26.2,55.77 -57.3,55.77 h -23.8 c -17,0 -33.3,-7.31 -44.1,-20.44 -20.5,-24.93 -53.1,-44.99 -105.1,-44.99" /><path
         id="path144"
         style="fill:#2a4d22;fill-opacity:1;fill-rule:nonzero;stroke:none"
         d="m 13846.2,3198 h -971.5 v 73.69 h 971.5 V 3198" /><path
         id="path146"
         style="fill:#cdccca;fill-opacity:1;fill-rule:nonzero;stroke:none"
         d="m 9927.11,3376.14 h -372.53 v 1037.57 h 372.53 V 3376.14" /><path
         id="path148"
         style="fill:#ffffff;fill-opacity:1;fill-rule:nonzero;stroke:none"
         d="m 11629.1,3376.14 h -372.5 v 1037.57 h 372.5 V 3376.14" /><path
         id="path150"
         style="fill:#ffffff;fill-opacity:1;fill-rule:nonzero;stroke:none"
         d="M 15631.5,3376.14 H 15259 v 1043.07 h 372.5 V 3376.14" /><path
         id="path152"
         style="fill:#e0e4e2;fill-opacity:1;fill-rule:nonzero;stroke:none"
         d="m 12885.8,5877.48 c -100.4,0 -181.8,-81.38 -181.8,-181.77 0,-100.4 81.4,-181.78 181.8,-181.78 100.4,0 181.8,81.38 181.8,181.78 -100.4,0 -181.8,81.38 -181.8,181.77" /><path
         id="path154"
         style="fill:#f6a78b;fill-opacity:1;fill-rule:nonzero;stroke:none"
         d="m 10726.5,4697.85 c 54.9,-82.85 32.3,-194.56 -50.6,-249.5 -82.8,-54.94 -194.5,-32.31 -249.5,50.54 l -320.4,483.22 c -54.9,82.85 -32.3,194.55 50.5,249.49 82.9,54.94 194.6,32.32 249.5,-50.53 l 320.5,-483.22" /><path
         id="path156"
         style="fill:#f48468;fill-opacity:1;fill-rule:nonzero;stroke:none"
         d="m 12993.8,4773.95 c 99.5,0.04 180.1,-80.51 180.1,-179.92 0.1,-99.41 -80.5,-180.04 -179.9,-180.08 l -579.8,-0.24 c -99.4,-0.04 -180,80.51 -180.1,179.92 0,99.41 80.5,180.04 179.9,180.08 l 579.8,0.24" /><path
         id="path158"
         style="fill:#9dded6;fill-opacity:1;fill-rule:nonzero;stroke:none"
         d="m 14420.4,597.102 v 0 0 z" /><path
         id="path160"
         style="fill:#9dded6;fill-opacity:1;fill-rule:nonzero;stroke:none"
         d="m 9955.66,597.102 h -0.61 l 0.31,-0.301 z" /><path
         id="path162"
         style="fill:#6c443a;fill-opacity:1;fill-rule:nonzero;stroke:none"
         d="m 14293.2,5191.08 h 417.8 l -13.5,260.22 H 14310 l -16.8,-260.22" /><path
         id="path164"
         style="fill:#ba622f;fill-opacity:1;fill-rule:nonzero;stroke:none"
         d="m 14670.2,5974.82 h -0.8 c -48,0 -86.9,38.89 -86.9,86.86 v 247.33 h -160.8 V 6051.7 c 0,-42.46 -34.4,-76.88 -76.9,-76.88 h -0.8 l -12.5,-193.63 h 348.8 l -10.1,193.63" /><path
         id="path166"
         style="fill:#8c4e28;fill-opacity:1;fill-rule:nonzero;stroke:none"
         d="M 14331.5,5781.19 14310,5451.3 h 387.5 l -17.2,329.89 h -348.8" /><path
         id="path168"
         style="fill:#f6a78b;fill-opacity:1;fill-rule:nonzero;stroke:none"
         d="m 15775.5,6626.33 c -121.9,245.28 -270,425.59 -276.2,433.15 -62.7,75.9 -175,86.58 -251,23.93 -76,-62.64 -86.8,-175.08 -24.3,-251.15 136.3,-165.71 460.6,-664.39 327.1,-977.81 -106.2,-249.25 -498.4,-332.54 -814,-358.21 -47.2,24.07 -100.5,37.74 -157.1,37.74 h -99.5 c -191,0 -345.9,-154.9 -345.9,-345.97 h 674 c 744.5,86.57 928.7,191.83 1071.2,527.32 106.5,250.87 71.4,557.37 -104.3,911" /><path
         id="path170"
         style="fill:#ffffff;fill-opacity:1;fill-rule:nonzero;stroke:none"
         d="m 15388.4,7185.38 -244.1,-305.63 357.2,-615.24 381.1,178.61 c 0,0 -224.3,650.89 -494.2,742.26" /><path
         id="path172"
         style="fill:#f6a78b;fill-opacity:1;fill-rule:nonzero;stroke:none"
         d="m 15282.3,8628.86 -1396.9,-169.87 16,-131.42 123.4,-1014.86 177.3,21.55 1219.6,148.31 -139.4,1146.29" /><path
         id="path174"
         style="fill:#3a1e15;fill-opacity:1;fill-rule:nonzero;stroke:none"
         d="m 14274.2,7749.22 c 7.3,-59.39 -31.9,-113.02 -87.5,-119.77 -55.5,-6.76 -106.4,35.91 -113.6,95.3 -7.2,59.39 31.9,113.02 87.5,119.77 55.5,6.76 106.4,-35.91 113.6,-95.3" /><path
         id="path176"
         style="fill:#3a1e15;fill-opacity:1;fill-rule:nonzero;stroke:none"
         d="m 14904.1,7825.82 c 7.2,-59.4 -31.9,-113.02 -87.5,-119.78 -55.5,-6.75 -106.4,35.92 -113.6,95.31 -7.3,59.39 31.9,113.02 87.5,119.77 55.5,6.76 106.4,-35.91 113.6,-95.3" /><path
         id="path178"
         style="fill:#6c443a;fill-opacity:1;fill-rule:nonzero;stroke:none"
         d="m 14197.5,8161.56 -148.7,-18.08 c -39.3,-4.78 -67.1,-41.71 -62.2,-82.49 l 291,35.38 c -4.9,40.78 -40.8,69.97 -80.1,65.19" /><path
         id="path180"
         style="fill:#6c443a;fill-opacity:1;fill-rule:nonzero;stroke:none"
         d="m 14827.4,8238.16 -148.8,-18.09 c -39.2,-4.77 -67.1,-41.71 -62.1,-82.49 l 291,35.39 c -5,40.78 -40.8,69.97 -80.1,65.19" /><path
         id="path182"
         style="fill:#6c443a;fill-opacity:1;fill-rule:nonzero;stroke:none"
         d="m 15384.2,7366.67 v -0.01 0.14 z m -317.8,1081.12 c 0.4,0.34 0.6,-3.22 1.1,-9.39 7.8,-91.63 68.4,-170.33 155,-201.39 l 1.5,-0.54 59.7,-491.06 10.5,-88.2 c 9.9,-83.6 -49.9,-159.48 -133.5,-169.29 v -0.01 l -656.3,-80.2 c -1.6,7.46 -74.5,-9.06 -74.5,-9.06 l -385.9,-46.93 -135,1110.14 -45,-5.48 0.5,-4.44 151.1,-1242.8 7,-57.1 16.6,-136.33 c 6.1,-50.1 29.6,-96.46 66.4,-131 l 2.3,-2.2 c 91.2,-85.66 85.2,-232.36 -12.7,-310.26 l -1.9,-1.49 c 0,0 316.9,38.21 533.7,64.84 l 2.5,0.37 156,18.97 c 238.6,47.97 394.1,154.14 495.1,268.13 133,149.93 192.1,351.46 167.9,550.38 l -140.9,1158.49 -241.2,-184.15" /><path
         id="path184"
         style="fill:#3a1e15;fill-opacity:1;fill-rule:nonzero;stroke:none"
         d="m 14465.3,7414.39 c -0.6,1.64 -10.7,1.4 -10.7,1.4 0,0 -10,-2.21 -10.2,-3.94 l -510.2,-199.04 c 62.5,-160.18 231.7,-243.8 377.8,-186.78 86,33.54 144.8,108.3 166,196.76 41.8,-80.8 116.8,-139.28 208.3,-151.24 155.6,-20.32 299.8,101.4 322.1,271.88 l -543.1,70.96" /><path
         id="path186"
         style="fill:#3a1e15;fill-opacity:1;fill-rule:nonzero;stroke:none"
         d="m 14940.7,8431.81 171.5,20.85 c 6.6,0.8 13,1.87 19.4,3.07 l -210.4,-25.6 c 6.5,0.38 13,0.88 19.5,1.68" /><path
         id="path188"
         style="fill:#3a1e15;fill-opacity:1;fill-rule:nonzero;stroke:none"
         d="m 15376.2,8789.74 c -12.5,102.94 -75.3,187.46 -160.8,232.03 -8.5,4.44 -17.3,8.47 -26.2,12.09 -19.6,7.95 -40.2,13.89 -61.4,17.59 -47.6,83.11 -133,140.06 -230,150.57 -22.6,2.45 -45.8,2.47 -69.4,-0.4 l -16.9,-2.05 -154.6,-18.8 c -12.1,-1.48 -24,-3.74 -35.6,-6.57 l -439.5,-53.45 -111.2,-13.52 -19.3,-2.35 -276,-33.56 c -75.4,-9.17 -145.9,25.68 -186.1,84.29 -80,-61.53 -139.4,-147.41 -167.7,-245.25 -1.9,-6.4 -3.6,-16.19 -5.3,-28.65 -33.6,-252.09 126.5,-489.7 371.8,-556.59 l 94.5,-21.3 161.6,19.65 877.1,106.66 210.4,25.6 c 89.7,16.77 163.7,72.13 206.6,146.59 31.5,54.78 46.2,119.85 38,187.42" /><path
         id="path190"
         style="fill:#ef3525;fill-opacity:1;fill-rule:nonzero;stroke:none"
         d="m 15082.1,7816.17 c 8.7,-71.3 -42.3,-136.35 -113.6,-145.02 l -213.3,-25.94 c -76.4,-9.3 -146.2,45.34 -155.5,121.78 l -7.7,63.69 -7.8,64.16 -3.3,26.82 481.2,58.52 z m -759.1,46.9 7.8,-64.15 8.2,-68.21 c 8.7,-71.3 -42.2,-136.35 -113.5,-145.02 l -213.3,-25.94 c -76.5,-9.3 -146.2,45.34 -155.5,121.78 l -18.2,149.84 481.2,58.52 z m 804.8,200.95 -74.3,-9.03 -556.4,-67.67 12.3,-101.57 -111.7,-13.59 -12.3,101.58 -555.2,-67.52 -75.6,-9.19 7.2,-59.39 20.1,-165.2 c 14.4,-117.86 121.5,-201.78 239.4,-187.44 l 213.3,25.93 c 112.7,13.71 192.9,116.18 179.2,228.87 l -8.3,68.21 111.7,13.58 7.2,-58.86 c 14.3,-117.86 121.5,-201.78 239.3,-187.45 l 213.3,25.94 c 112.7,13.71 193,116.17 179.2,228.87 l -19.7,162.27 340.2,41.37 c -5.2,42.72 -43.1,67.48 -85.8,62.29 l -263.1,-32" /><path
         id="path192"
         style="fill:#f48468;fill-opacity:1;fill-rule:nonzero;stroke:none"
         d="m 14398,7807.09 -104.8,-425.07 c 16.1,1.96 273.4,33.26 273.4,33.26 l -49.4,406.31 -119.2,-14.5" /><path
         id="path194"
         style="fill:#f6a78b;fill-opacity:1;fill-rule:nonzero;stroke:none"
         d="m 15372.7,8020.64 -44.4,-5.39 61.4,-504.84 44.4,5.4 c 139.4,16.95 238.7,143.7 221.7,283.11 -16.9,139.41 -143.7,238.68 -283.1,221.72" /><path
         id="path196"
         style="fill:#f6a78b;fill-opacity:1;fill-rule:nonzero;stroke:none"
         d="m 14398,7807.1 -144.5,-429.9 81.5,9.91 96.4,424.04 -33.4,-4.05" /><g
         transform="scale(1.0076)"
         id="g198"><path
           id="path200"
           style="fill:#28637c;fill-opacity:1;fill-rule:nonzero;stroke:none"
           d="m 16300,9997.66 c 0,53.14 -43.1,96.24 -96.2,96.24 h -93.4 -48.4 v -96.24 -120.6 c -10.7,4.98 -22.6,7.85 -35.2,7.85 -46.2,0 -83.7,-37.46 -83.7,-83.67 0,-46.22 37.5,-83.68 83.7,-83.68 44.1,0 80.3,34.27 83.3,77.67 h 0.3 v 202.43 h 189.6" /></g><path
         id="path202"
         style="fill:#28637c;fill-opacity:1;fill-rule:nonzero;stroke:none"
         d="m 15775.3,9791.42 c -12.1,0.12 -24.4,-2.74 -35.7,-9.03 l -100.2,-55.7 -31.8,-17.64 35,-63.03 43.9,-79.01 c -8.8,-0.63 -17.6,-3.09 -25.9,-7.67 -30.2,-16.83 -41.1,-55.01 -24.3,-85.28 16.8,-30.28 55,-41.18 85.3,-24.35 28.9,16.08 40.1,51.68 26.3,81.23 l 0.2,0.11 -73.7,132.62 131.3,72.98 43.9,-79.01 c -8.8,-0.63 -17.6,-3.09 -25.9,-7.67 -30.3,-16.83 -41.2,-55.01 -24.3,-85.28 16.8,-30.28 55,-41.18 85.2,-24.36 29,16.09 40.2,51.69 26.4,81.24 l 0.2,0.11 -73.7,132.62 0.1,0.09 c -13,23.48 -37.2,36.77 -62.3,37.03" /></g></g></svg>