<?xml version="1.0" encoding="UTF-8" standalone="no"?>
<svg
   xmlns:dc="http://purl.org/dc/elements/1.1/"
   xmlns:cc="http://creativecommons.org/ns#"
   xmlns:rdf="http://www.w3.org/1999/02/22-rdf-syntax-ns#"
   xmlns:svg="http://www.w3.org/2000/svg"
   xmlns="http://www.w3.org/2000/svg"
   viewBox="0 0 2400 1600"
   height="1600"
   width="2400"
   xml:space="preserve"
   id="svg2"
   version="1.1"><metadata
     id="metadata8"><rdf:RDF><cc:Work
         rdf:about=""><dc:format>image/svg+xml</dc:format><dc:type
           rdf:resource="http://purl.org/dc/dcmitype/StillImage" /></cc:Work></rdf:RDF></metadata><defs
     id="defs6" /><g
     transform="matrix(1.3333333,0,0,-1.3333333,0,1600)"
     id="g10"><g
       transform="scale(0.1)"
       id="g12"><g
         transform="scale(1.10429)"
         id="g14"><path
           id="path16"
           style="fill:#none;fill-opacity:0;fill-rule:nonzero;stroke:none"
           d="M 16300,0 H 0 V 10866.7 H 16300 V 0" /></g><path
         id="path18"
         style="fill:none;fill-opacity:1;fill-rule:nonzero;stroke:none"
         d="M 0,0 H 9000 V 12000 H 0 Z" /><path
         id="path20"
         style="fill:#96dcdd;fill-opacity:1;fill-rule:nonzero;stroke:none"
         d="m 13328.6,5269.23 h -50 c -44.2,0 -80,35.82 -80,80 0,44.18 35.8,80 80,80 h 50 c 44.2,0 80,-35.82 80,-80 0,-44.18 -35.8,-80 -80,-80 m -400,0 h -50 c -44.2,0 -80,35.82 -80,80 0,44.18 35.8,80 80,80 h 50 c 44.2,0 80,-35.82 80,-80 0,-44.18 -35.8,-80 -80,-80 m -398.6,1.37 c -44.2,0 -80,35.83 -80,80.01 v 50 c 0,44.17 35.8,80 80,80 44.2,0 80,-35.83 80,-80 v -50 c 0,-44.18 -35.8,-80.01 -80,-80.01 m 0,400.01 c -44.2,0 -80,35.82 -80,79.99 v 50 c 0,44.19 35.8,80.01 80,80.01 44.2,0 80,-35.82 80,-80.01 v -50 c 0,-44.17 -35.8,-79.99 -80,-79.99 m 0,400 c -44.2,0 -80,35.81 -80,80 v 50 c 0,44.18 35.8,79.99 80,79.99 44.2,0 80,-35.81 80,-79.99 v -50 c 0,-44.19 -35.8,-80 -80,-80 m 0,399.99 c -44.2,0 -80,35.82 -80,80.01 v 50 c 0,44.18 35.8,80 80,80 44.2,0 80,-35.82 80,-80 v -50 c 0,-44.19 -35.8,-80.01 -80,-80.01 m 0,400.01 c -22.3,0 -42.5,9.12 -57,23.84 -31.2,10.9 -53.6,40.6 -53.6,75.55 0,44.19 35.8,80 80,80 h 30.6 c 44.2,0 80,-35.81 80,-80 v -19.4 c 0,-44.18 -35.8,-79.99 -80,-79.99 m -380.6,19.39 h -50 c -44.2,0 -80,35.82 -80,80 0,44.19 35.8,80 80,80 h 50 c 44.2,0 80,-35.81 80,-80 0,-44.18 -35.8,-80 -80,-80 m -400,0 h -50 c -44.2,0 -80,35.82 -80,80 0,44.19 35.8,80 80,80 h 50 c 44.2,0 80,-35.81 80,-80 0,-44.18 -35.8,-80 -80,-80 m -400,0 h -50 c -44.2,0 -80,35.82 -80,80 0,44.19 35.8,80 80,80 h 50 c 44.2,0 80,-35.81 80,-80 0,-44.18 -35.8,-80 -80,-80 m -400,0 h -50 c -44.2,0 -80,35.82 -80,80 0,44.19 35.8,80 80,80 h 50 c 44.2,0 80,-35.81 80,-80 0,-44.18 -35.8,-80 -80,-80 m -400,0 h -50 c -44.2,0 -80,35.82 -80,80 0,44.19 35.8,80 80,80 h 50 c 44.2,0 80,-35.81 80,-80 0,-44.18 -35.8,-80 -80,-80 m -400,0 h -50 c -44.2,0 -80,35.82 -80,80 0,44.19 35.8,80 80,80 h 50 c 44.2,0 80,-35.81 80,-80 0,-44.18 -35.8,-80 -80,-80 m -400.01,0 h -50 c -44.18,0 -79.99,35.82 -79.99,80 0,44.19 35.81,80 79.99,80 h 50 c 44.18,0 80,-35.81 80,-80 0,-44.18 -35.82,-80 -80,-80 m -400,0 h -50 c -44.17,0 -80,35.82 -80,80 0,44.19 35.83,80 80,80 h 50 c 44.18,0 80.01,-35.81 80.01,-80 0,-44.18 -35.83,-80 -80.01,-80 M 9000,6908.04 v 123.92 c 17.94,-14.67 29.39,-36.97 29.39,-61.96 0,-24.99 -11.45,-47.29 -29.39,-61.96" /><path
         id="path22"
         style="fill:#b6e7e5;fill-opacity:1;fill-rule:nonzero;stroke:none"
         d="m 8949.4,6890 h -50 c -44.19,0 -80.01,35.82 -80.01,80 0,44.19 35.82,80 80.01,80 h 50 c 19.19,0 36.81,-6.76 50.6,-18.04 v -123.92 c -13.79,-11.27 -31.41,-18.04 -50.6,-18.04 m -400.01,0 h -50 c -44.18,0 -79.99,35.82 -79.99,80 0,44.19 35.81,80 79.99,80 h 50 c 44.19,0 80,-35.81 80,-80 0,-44.18 -35.81,-80 -80,-80 m -400,0 h -50 c -44.18,0 -79.99,35.82 -79.99,80 0,44.19 35.81,80 79.99,80 h 50 c 44.19,0 80.01,-35.81 80.01,-80 0,-44.18 -35.82,-80 -80.01,-80 m -399.99,0 h -50 c -44.19,0 -80.01,35.82 -80.01,80 0,44.19 35.82,80 80.01,80 h 50 c 44.18,0 80,-35.81 80,-80 0,-44.18 -35.82,-80 -80,-80 m -400,0 h -50 c -44.19,0 -80,35.82 -80,80 0,44.19 35.81,80 80,80 h 50 c 44.18,0 79.99,-35.81 79.99,-80 0,-44.18 -35.81,-80 -79.99,-80 m -400.01,0 h -50 c -44.18,0 -79.99,35.82 -79.99,80 0,44.19 35.81,80 79.99,80 h 50 c 44.19,0 80.01,-35.81 80.01,-80 0,-44.18 -35.82,-80 -80.01,-80 m -400,0 h -49.99 c -44.19,0 -80.01,35.82 -80.01,80 0,44.19 35.82,80 80.01,80 h 49.99 c 44.19,0 80.01,-35.81 80.01,-80 0,-44.18 -35.82,-80 -80.01,-80 m -399.99,0 h -50 c -44.19,0 -80,35.82 -80,80 0,44.19 35.81,80 80,80 h 50 c 44.18,0 79.99,-35.81 79.99,-80 0,-44.18 -35.81,-80 -79.99,-80 m -400.01,0 h -50 c -44.18,0 -79.99,35.82 -79.99,80 0,44.19 35.81,80 79.99,80 h 50 c 44.19,0 80,-35.81 80,-80 0,-44.18 -35.81,-80 -80,-80 M 5470,7010.6 c -44.19,0 -80,35.82 -80,80 v 50 c 0,44.19 35.81,80.01 80,80.01 44.18,0 80,-35.82 80,-80.01 v -50 c 0,-44.18 -35.82,-80 -80,-80 m 0,400.01 c -44.19,0 -80,35.81 -80,79.99 v 50 c 0,44.19 35.81,80 80,80 44.18,0 80,-35.81 80,-80 v -50 c 0,-44.18 -35.82,-79.99 -80,-79.99 m 0,399.99 c -44.19,0 -80,35.82 -80,80.01 v 50 c 0,44.18 35.81,79.99 80,79.99 44.18,0 80,-35.81 80,-79.99 v -50 c 0,-44.19 -35.82,-80.01 -80,-80.01 m 0,400 c -19.31,0 -37.03,6.85 -50.85,18.24 -35.9,7.88 -62.78,39.87 -62.78,78.14 0,44.19 35.82,80 80.01,80 H 5470 c 44.18,0 80,-35.81 80,-80 v -16.38 c 0,-44.18 -35.82,-80 -80,-80 m -383.62,16.38 h -50 c -44.19,0 -80,35.82 -80,80 0,44.19 35.81,80 80,80 h 50 c 44.18,0 80,-35.81 80,-80 0,-44.18 -35.82,-80 -80,-80 m -400,0 h -50.01 c -44.18,0 -79.99,35.82 -79.99,80 0,44.19 35.81,80 79.99,80 h 50.01 c 44.18,0 80,-35.81 80,-80 0,-44.18 -35.82,-80 -80,-80" /><g
         transform="scale(1.0311)"
         id="g24"><path
           id="path26"
           style="fill:#ffffff;fill-opacity:1;fill-rule:nonzero;stroke:none"
           d="m 16300,983.126 c 0,-66.336 -53.8,-120.162 -120.2,-120.162 h -1901.3 c -66.4,0 -120.2,53.826 -120.2,120.162 0,66.434 53.8,120.164 120.2,120.164 h 1901.3 c 66.4,0 120.2,-53.73 120.2,-120.164" /></g><path
         id="path28"
         style="fill:#ffffff;fill-opacity:1;fill-rule:nonzero;stroke:none"
         d="m 15232.3,5774.99 c -148.6,8.27 -275.7,-105.46 -284,-254.03 l -34.6,-622.5 538,-29.93 34.6,622.5 c 8.3,148.57 -105.5,275.7 -254,283.96" /><path
         id="path30"
         style="fill:#f6a78b;fill-opacity:1;fill-rule:nonzero;stroke:none"
         d="m 15066.5,4332.49 c -38.5,0 -77.3,6.64 -114.6,20.14 L 14082,4667.4 c -74.4,26.94 -112.9,109.13 -86,183.57 26.9,74.45 109.1,112.98 183.6,86.02 l 755.7,-273.57 c 21.6,-7.81 38.3,0.75 46.3,6.59 7.9,5.82 21.2,19.03 20.4,42.05 l 78.9,940.14 c -2.8,79.11 59,145.56 138.1,148.4 79.1,3 145.6,-58.98 148.4,-138.11 l 35.3,-981.34 c 4,-111.91 -47.6,-218.1 -138.1,-284.05 -58.4,-42.58 -127.9,-64.6 -198.1,-64.61" /><g
         transform="scale(1.02058)"
         id="g32"><path
           id="path34"
           style="fill:#ce5c5a;fill-opacity:1;fill-rule:nonzero;stroke:none"
           d="m 16161.8,1929.68 -224.6,-154.52 -117.1,-248.19 35.2,-124.05 444.7,393.31 -138.2,133.45" /></g><path
         id="path36"
         style="fill:#f6a78b;fill-opacity:1;fill-rule:nonzero;stroke:none"
         d="m 15710.9,1264.6 -205.4,-40.9 -31.1,-125 h 468.3 v 149.2 l -231.8,16.7" /><g
         transform="scale(1.01653)"
         id="g38"><path
           id="path40"
           style="fill:#f48468;fill-opacity:1;fill-rule:nonzero;stroke:none"
           d="m 16088.5,1645.59 -1321,993.15 c -116,91.03 -189.5,221.87 -206.6,368.43 -17.3,146.56 24,290.83 115.9,406.23 l 446.6,560.43 294.1,-234.35 -446.6,-560.41 c -29,-36.4 -42,-81.92 -36.6,-128.15 5.4,-46.24 28.6,-87.51 65.2,-116.23 L 16300,1915.33 16088.5,1645.59" /></g><g
         transform="scale(1.02663)"
         id="g42"><path
           id="path44"
           style="fill:#2d1913;fill-opacity:1;fill-rule:nonzero;stroke:none"
           d="m 16245.3,1875.37 c -36.5,36.33 -66.7,75.82 -112.8,76.61 -17.9,-43.49 -52,-93.37 -98.2,-139.73 -93.9,-93.9 -202.5,-137.54 -242.6,-97.51 l -101.8,-101.79 c -80.9,-80.94 -95.4,-226.66 -14.6,-307.51 l -27.9,-27.95 39.4,-39.45 613.2,613.17 -39.4,39.45 -15.3,-15.29" /></g><path
         id="path46"
         style="fill:#100f0d;fill-opacity:1;fill-rule:nonzero;stroke:none"
         d="m 15695.7,3700.81 -521.3,209.14 -388.1,-614.67 -40.4,24.16 -75.7,-126.66 539.9,-322.76 75.7,126.67 -35.3,21.07 445.2,683.05" /><path
         id="path48"
         style="fill:#f6a78b;fill-opacity:1;fill-rule:nonzero;stroke:none"
         d="m 16037,1175.6 -20.6,107.1 -527.9,1455.49 c -17.5,48.02 -18.5,101.27 -3,149.95 l 273.9,859.39 -364.2,116.08 -273.9,-859.39 c -41,-128.67 -38.2,-269.44 7.8,-396.39 l 592.1,-1432.23 h 315.8" /><path
         id="path50"
         style="fill:#173032;fill-opacity:1;fill-rule:nonzero;stroke:none"
         d="m 15385.4,3909.95 -300.2,-906.64 537.3,-133.29 278.2,852.18 -515.3,187.75" /><path
         id="path52"
         style="fill:#1d4b48;fill-opacity:1;fill-rule:nonzero;stroke:none"
         d="m 15648.3,2843.2 -609.7,154.86 36.3,143.03 609.7,-154.86 -36.3,-143.03" /><path
         id="path54"
         style="fill:#173032;fill-opacity:1;fill-rule:nonzero;stroke:none"
         d="m 16037.1,4019.3 c 13.7,-211.25 -146.5,-393.54 -357.8,-407.16 l -154.7,-9.98 c -211.2,-13.62 -393.5,146.59 -407.2,357.83 -13.6,211.25 146.6,393.54 357.9,407.16 l 154.7,9.98 c 211.2,13.62 393.5,-146.59 407.1,-357.83" /><path
         id="path56"
         style="fill:#ffffff;fill-opacity:1;fill-rule:nonzero;stroke:none"
         d="m 15428,5788.2 c -264.8,-19.26 -463.8,-249.51 -444.6,-514.29 l 121.4,-1353.49 958.8,69.72 -121.3,1353.5 c -19.3,264.77 -249.5,463.81 -514.3,444.56" /><path
         id="path58"
         style="fill:#f6a78b;fill-opacity:1;fill-rule:nonzero;stroke:none"
         d="m 13957.3,4864.96 c 0,-84.44 -52.9,-152.9 -118.2,-152.9 -65.4,0 -118.3,68.46 -118.3,152.9 v 67.43 c 0,84.45 52.9,152.9 118.3,152.9 65.3,0 118.2,-68.45 118.2,-152.9 v -67.43" /><path
         id="path60"
         style="fill:#f6a78b;fill-opacity:1;fill-rule:nonzero;stroke:none"
         d="m 15568.2,3304.74 c -10.8,1.01 -21.7,3.27 -32.4,6.87 -75.1,25.23 -115.4,106.51 -90.2,181.55 l 319,879.11 c 28.5,83.62 33.2,172.73 13.8,258.29 l -184,809.05 c -17.6,77.19 30.8,154.01 108,171.56 77.1,17.54 154,-30.79 171.5,-107.99 l 184,-809.05 c 31.3,-137.37 23.7,-280.45 -21.7,-413.77 l -318.9,-878.53 c -21.6,-64.31 -84.4,-103.18 -149.1,-97.09" /><path
         id="path62"
         style="fill:#ffffff;fill-opacity:1;fill-rule:nonzero;stroke:none"
         d="m 15624.7,5760.24 c -146.3,-26.81 -245.6,-192.22 -218.8,-338.58 l 112.4,-613.26 530,97.1 -112.4,613.26 c -26.8,146.35 -164.8,268.29 -311.2,241.48" /><path
         id="path64"
         style="fill:#f6a78b;fill-opacity:1;fill-rule:nonzero;stroke:none"
         d="m 14980.3,5970.66 -195.9,-230.61 427.3,29.21 z" /><path
         id="path66"
         style="fill:#f6a78b;fill-opacity:1;fill-rule:nonzero;stroke:none"
         d="m 15712.9,7034.72 -1163.4,-79.53 7.5,-109.47 57.8,-845.26 147.6,10.09 1015.8,69.44 -65.3,954.73" /><path
         id="path68"
         style="fill:#3a1e15;fill-opacity:1;fill-rule:nonzero;stroke:none"
         d="m 14840.3,6350.81 c 3.4,-49.47 -31.4,-92.13 -77.7,-95.3 -46.2,-3.16 -86.5,34.38 -89.9,83.84 -3.3,49.47 31.4,92.13 77.7,95.3 46.3,3.16 86.5,-34.38 89.9,-83.84" /><path
         id="path70"
         style="fill:#3a1e15;fill-opacity:1;fill-rule:nonzero;stroke:none"
         d="m 15364.9,6386.67 c 3.4,-49.47 -31.4,-92.13 -77.6,-95.29 -46.3,-3.17 -86.6,34.37 -89.9,83.84 -3.4,49.46 31.3,92.13 77.6,95.29 46.3,3.16 86.5,-34.37 89.9,-83.84" /><path
         id="path72"
         style="fill:#6c443a;fill-opacity:1;fill-rule:nonzero;stroke:none"
         d="m 14794.8,6695.41 -123.9,-8.47 c -32.7,-2.24 -57.3,-31.59 -55,-65.55 l 184.2,12.59 c 38.3,2.62 38.4,60.58 0.1,61.54 -1.8,0.05 -3.6,0.01 -5.4,-0.11" /><path
         id="path74"
         style="fill:#6c443a;fill-opacity:1;fill-rule:nonzero;stroke:none"
         d="m 15319.4,6731.27 -123.9,-8.47 c -1.8,-0.12 -3.6,-0.33 -5.3,-0.62 -37.9,-6.17 -29.8,-63.57 8.4,-60.95 l 184.3,12.59 c -2.4,33.97 -30.8,59.69 -63.5,57.45" /><path
         id="path76"
         style="fill:#6c443a;fill-opacity:1;fill-rule:nonzero;stroke:none"
         d="m 15526.4,6894.31 c 0.4,0.26 0.4,-2.69 0.5,-7.83 2.5,-76.17 49.2,-143.95 119.4,-173.43 l 1.2,-0.51 28,-409 4.8,-73.45 c 4.6,-69.62 -48.2,-129.8 -117.8,-134.27 h -0.1 l -546.6,-37.69 c -1,6.25 -62,-4.24 -62,-4.24 l -321.4,-21.98 -63.2,924.62 -37.5,-2.56 0.2,-3.7 27.7,-405.41 4.3,-62.26 16.1,-236.35 4.4,-63.56 12.7,-186.58 16,-233.93 0.6,-8.14 c 2.8,-41.72 20.3,-81.12 49.2,-111.3 l 1.8,-1.91 c 71.8,-74.88 60.4,-196.03 -24.1,-256.22 l -1.6,-1.15 c 0,0 264,17.77 444.6,30.34 l 2,0.19 130,8.88 c 81.7,5.59 160.1,25.44 232.4,57.46 229.4,101.56 367.2,339.86 350.5,590.21 l -64.5,965.62 -207.6,-141.85" /><path
         id="path78"
         style="fill:#3a1e15;fill-opacity:1;fill-rule:nonzero;stroke:none"
         d="m 14983.8,6065.36 c -0.4,1.38 -8.9,1.64 -8.9,1.64 0,0 -8.3,-1.4 -8.5,-2.83 l -430.9,-142.42 c 44.7,-135.29 181,-211.88 304.5,-171.08 72.6,24 124.5,83.29 145.9,155.58 31.1,-68.7 90.6,-120.37 165.8,-134.27 127.9,-23.62 252.5,70.82 278.4,210.93 l -446.3,82.45" /><path
         id="path80"
         style="fill:#3a1e15;fill-opacity:1;fill-rule:nonzero;stroke:none"
         d="m 15421.7,6886.57 142.8,9.77 c 5.5,0.37 10.9,0.97 16.2,1.68 l -175.3,-11.98 c 5.4,0.02 10.8,0.16 16.3,0.53" /><path
         id="path82"
         style="fill:#3a1e15;fill-opacity:1;fill-rule:nonzero;stroke:none"
         d="m 15674.8,7362.8 c -6.9,4.05 -13.9,7.77 -21.2,11.15 -15.9,7.44 -32.6,13.26 -50,17.25 -35.8,70.86 -103.9,121.71 -183.8,134.65 -18.6,3.02 -37.8,4.05 -57.4,2.71 l -14.1,-0.97 -128.8,-8.8 c -10.1,-0.69 -20,-2.04 -29.7,-3.88 l -366.1,-25.03 -92.6,-6.32 -16.1,-1.1 -229.8,-15.72 c -62.8,-4.29 -119.7,27.63 -150.3,77.89 -69,-47.42 -121.8,-115.9 -149.6,-195.63 -16.9,-48.7 -24.5,-101.54 -20.8,-156.24 13.6,-199.08 172.7,-353.42 366.4,-366.5 4,-1.73 7.3,2.44 11.4,0.78 l 132.6,9.06 730.5,49.94 175.3,11.98 c 75,9.97 138.6,52.55 177.3,112.29 28.5,43.96 43.6,97.16 39.7,153.45 -5.8,85.73 -54.1,158.43 -122.9,199.04" /><path
         id="path84"
         style="fill:#f03935;fill-opacity:1;fill-rule:nonzero;stroke:none"
         d="m 15511.8,6370.91 c 4,-59.38 -41,-110.99 -100.4,-115.05 l -177.6,-12.14 c -63.7,-4.36 -119,43.9 -123.4,107.57 l -3.6,53.05 -3.7,53.44 -1.5,22.33 400.8,27.4 z m -626.2,71.99 3.6,-53.43 3.9,-56.81 c 4.1,-59.38 -40.9,-110.99 -100.3,-115.05 l -177.7,-12.15 c -63.6,-4.35 -119,43.91 -123.3,107.58 l -8.6,124.8 400.8,27.4 z m 674.8,131.13 -61.8,-4.23 -463.5,-31.68 5.8,-84.6 -93.1,-6.36 -5.7,84.6 -462.4,-31.61 -63,-4.31 3.4,-49.46 9.4,-137.6 c 6.7,-98.16 91.7,-172.29 189.9,-165.58 l 177.6,12.14 c 93.9,6.42 164.8,87.71 158.4,181.58 l -3.9,56.8 93,6.36 3.4,-49.02 c 6.7,-98.16 91.7,-172.3 189.9,-165.59 l 177.6,12.15 c 93.9,6.42 164.8,87.71 158.3,181.57 l -9.2,135.15 283.3,19.37 c -2.4,35.59 -32.7,57.73 -68.3,55.3 l -219.1,-14.98" /><path
         id="path86"
         style="fill:#f48468;fill-opacity:1;fill-rule:nonzero;stroke:none"
         d="m 14945.2,6393.3 -105.3,-347.2 c 13.4,0.92 227.8,15.57 227.8,15.57 l -23.2,338.41 -99.3,-6.78" /><path
         id="path88"
         style="fill:#f6a78b;fill-opacity:1;fill-rule:nonzero;stroke:none"
         d="m 15761.2,6527.43 -36.9,-2.53 28.7,-420.47 36.9,2.53 c 116.2,7.94 203.9,108.49 195.9,224.6 -7.9,116.12 -108.5,203.8 -224.6,195.87" /><path
         id="path90"
         style="fill:#f6a78b;fill-opacity:1;fill-rule:nonzero;stroke:none"
         d="m 14226.3,4905.96 c 0,-131.94 -106.9,-238.91 -238.9,-238.91 -211.4,0 -266.6,106.97 -266.6,238.91 0,131.95 134.7,238.91 266.6,238.91 132,0 238.9,-106.96 238.9,-238.91" /><path
         id="path92"
         style="fill:#f6a78b;fill-opacity:1;fill-rule:nonzero;stroke:none"
         d="m 14297,4822.75 c 0,-38.7 -31.4,-70.08 -70.1,-70.08 -38.7,0 -70.1,31.38 -70.1,70.08 v 192.46 c 0,38.71 31.4,70.08 70.1,70.08 38.7,0 70.1,-31.37 70.1,-70.08 v -192.46" /><path
         id="path94"
         style="fill:#173032;fill-opacity:1;fill-rule:nonzero;stroke:none"
         d="m 15704,3836.11 c -55.8,19.88 -98,60.84 -120.9,110.72 l -63.5,0.41 -186.2,-643.13 332.6,-163.02 280.1,770.8 c -53.4,-74.5 -151.4,-108.1 -242.1,-75.78" /><path
         id="path96"
         style="fill:#6c443a;fill-opacity:1;fill-rule:nonzero;stroke:none"
         d="m 15890.9,6179.26 c -20.1,0 -36.5,-16.36 -36.5,-36.48 0,-20.12 16.4,-36.48 36.5,-36.48 20.1,0 36.5,16.36 36.5,36.48 0,20.12 -16.4,36.48 -36.5,36.48 z m 0,-118.45 c -45.2,0 -81.9,36.77 -81.9,81.97 0,45.2 36.7,81.97 81.9,81.97 45.2,0 82,-36.77 82,-81.97 0,-45.2 -36.8,-81.97 -82,-81.97" /><path
         id="path98"
         style="fill:#3a5b75;fill-opacity:1;fill-rule:nonzero;stroke:none"
         d="m 15861.5,4801.87 c 1.2,-6.85 -3.3,-13.44 -10.1,-14.73 l -70.9,-13.31 c -6.8,-1.29 -13.4,3.22 -14.7,10.07 -1.3,6.85 3.2,13.44 10.1,14.73 l 70.8,13.31 c 6.9,1.29 13.5,-3.22 14.8,-10.07" /><path
         id="path100"
         style="fill:#3a5b75;fill-opacity:1;fill-rule:nonzero;stroke:none"
         d="m 15925.6,4813.92 c 1.3,-6.84 -3.2,-13.44 -10,-14.73 l -22.5,-4.21 c -6.8,-1.29 -13.4,3.22 -14.7,10.07 -1.3,6.85 3.2,13.44 10.1,14.73 l 22.4,4.21 c 6.8,1.29 13.4,-3.22 14.7,-10.07" /><path
         id="path102"
         style="fill:#3a5b75;fill-opacity:1;fill-rule:nonzero;stroke:none"
         d="m 16006.7,4829.16 c 1.3,-6.85 -3.2,-13.45 -10.1,-14.73 l -45.2,-8.51 c -6.9,-1.28 -13.5,3.22 -14.8,10.07 -1.2,6.85 3.3,13.45 10.1,14.73 l 45.3,8.51 c 6.8,1.28 13.4,-3.22 14.7,-10.07" /><path
         id="path104"
         style="fill:#3a5b75;fill-opacity:1;fill-rule:nonzero;stroke:none"
         d="m 15886.1,4763.85 c 1.3,-6.85 -3.2,-13.45 -10,-14.73 l -45.3,-8.51 c -6.9,-1.29 -13.5,3.22 -14.7,10.07 -1.3,6.85 3.2,13.44 10,14.73 l 45.3,8.51 c 6.8,1.28 13.4,-3.23 14.7,-10.07" /><path
         id="path106"
         style="fill:#3a5b75;fill-opacity:1;fill-rule:nonzero;stroke:none"
         d="m 15968.4,4779.3 c 1.3,-6.85 -3.2,-13.44 -10.1,-14.73 l -45.2,-8.5 c -6.9,-1.29 -13.5,3.22 -14.8,10.07 -1.3,6.85 3.2,13.44 10.1,14.73 l 45.3,8.5 c 6.8,1.29 13.4,-3.22 14.7,-10.07" /><path
         id="path108"
         style="fill:#f6a78b;fill-opacity:1;fill-rule:nonzero;stroke:none"
         d="m 14921.5,6349.68 -100.8,-332.2 66.5,4.55 70.2,330.11 -35.9,-2.46" /><path
         id="path110"
         style="fill:#555658;fill-opacity:1;fill-rule:nonzero;stroke:none"
         d="m 13945,6111.57 h -381.4 l 221.1,-1308.23 h 394.3 l -234,1308.23" /><path
         id="path112"
         style="fill:#555658;fill-opacity:1;fill-rule:nonzero;stroke:none"
         d="m 14241.9,4896.76 c 8.1,-42.81 -20.1,-84.03 -62.9,-92.06 -42.8,-8.03 -84,20.17 -92.1,62.98 l -215.8,1150.47 c -8,42.81 20.2,84.02 63,92.05 42.8,8.03 84,-20.17 92.1,-62.97 l 215.7,-1150.47" /><path
         id="path114"
         style="fill:#39393a;fill-opacity:1;fill-rule:nonzero;stroke:none"
         d="m 13860.1,4896.76 c 8,-42.81 -20.2,-84.03 -63,-92.06 -42.8,-8.03 -84,20.17 -92.1,62.98 l -215.7,1150.47 c -8.1,42.81 20.1,84.02 62.9,92.05 42.8,8.03 84.1,-20.17 92.1,-62.97 l 215.8,-1150.47" /><path
         id="path116"
         style="fill:#ffffff;fill-opacity:1;fill-rule:nonzero;stroke:none"
         d="m 14003.6,5962.38 h -290.5 l 156.7,-829.69 h 294.7 l -160.9,829.69" /><path
         id="path118"
         style="fill:#555658;fill-opacity:1;fill-rule:nonzero;stroke:none"
         d="m 13632.5,5486.07 c 3.4,-17.86 20.7,-29.59 38.5,-26.19 17.9,3.4 29.6,20.65 26.2,38.51 l -23,120.83 -64.7,-12.32 23,-120.83" /><path
         id="path120"
         style="fill:#555658;fill-opacity:1;fill-rule:nonzero;stroke:none"
         d="m 13636.6,5816.86 c -3.4,17.87 -20.7,29.6 -38.5,26.2 -17.9,-3.41 -29.6,-20.65 -26.2,-38.52 l 23,-120.82 64.7,12.31 -23,120.83" /><path
         id="path122"
         style="fill:#4ea2de;fill-opacity:1;fill-rule:nonzero;stroke:none"
         d="m 14053.1,5707.22 h -291.8 l -37.7,201.61 h 290.4 l 39.1,-201.61" /><path
         id="path124"
         style="fill:#b0e3f1;fill-opacity:1;fill-rule:nonzero;stroke:none"
         d="m 13989.9,5479.15 h -160.6 l -20.7,110.97 h 159.8 l 21.5,-110.97" /><path
         id="path126"
         style="fill:#b0e3f1;fill-opacity:1;fill-rule:nonzero;stroke:none"
         d="m 14131.3,5314.56 h -167.7 l -21.6,115.86 h 166.9 l 22.4,-115.86" /><path
         id="path128"
         style="fill:#b0e3f1;fill-opacity:1;fill-rule:nonzero;stroke:none"
         d="m 14033.4,5152.42 h -167.7 l -21.6,115.86 h 166.9 l 22.4,-115.86" /><path
         id="path130"
         style="fill:#f0365e;fill-opacity:1;fill-rule:nonzero;stroke:none"
         d="m 13893.4,5728.02 h -113.7 l -30.1,155.29 h 110.3 l 33.5,-155.29" /><path
         id="path132"
         style="fill:#ffffff;fill-opacity:1;fill-rule:nonzero;stroke:none"
         d="m 13861.6,5732.25 -7,37.7 c -1.2,6.74 -4.8,12.4 -9.7,16.51 9.8,9.19 14.9,22.97 12.3,37.17 -4.1,22.18 -25.4,36.85 -47.6,32.76 -22.1,-4.09 -36.8,-25.39 -32.7,-47.58 2.6,-14.2 12.3,-25.24 24.7,-30.33 -3,-5.58 -4.4,-12.14 -3.1,-18.89 l 5.8,-31.57 h 57.6 c 0,1.4 -0.1,2.81 -0.3,4.23" /><path
         id="path134"
         style="fill:#f6a78b;fill-opacity:1;fill-rule:nonzero;stroke:none"
         d="m 13779.8,5794.18 c 7.9,-12.53 21.7,-20.93 37.6,-20.93 14.9,0 28,7.4 36.1,18.65 l -57.7,25.88 -16,-23.6" /><path
         id="path136"
         style="fill:#39393a;fill-opacity:1;fill-rule:nonzero;stroke:none"
         d="m 13817.4,5862.3 c -24.6,0 -44.5,-19.94 -44.5,-44.52 0,-8.7 2.6,-16.75 6.9,-23.6 l 16,23.6 57.7,-25.88 c 5.3,7.3 8.4,16.19 8.4,25.88 0,24.58 -19.9,44.52 -44.5,44.52" /><path
         id="path138"
         style="fill:#3a1e15;fill-opacity:1;fill-rule:nonzero;stroke:none"
         d="m 16086.7,1072.2 c -0.6,55.9 5.9,109.5 -29.3,145.2 -46.9,-20.2 -111.2,-33.1 -182.3,-33.9 -144.2,-1.5 -261.6,47 -262.3,108.5 l -156.4,-1.7 c -124.2,-1.4 -246.2,-103.4 -244.8,-227.6 l -42.9,-0.5 0.6,-60.5 941.6,10.3 -0.7,60.5 -23.5,-0.3" /><path
         id="path140"
         style="fill:#39393a;fill-opacity:1;fill-rule:nonzero;stroke:none"
         d="m 14127.2,4985.13 c 0,-29.15 -23.7,-52.78 -52.8,-52.78 h -63.8 c -29.2,0 -52.8,23.63 -52.8,52.78 0,29.15 23.6,52.78 52.8,52.78 h 63.8 c 29.1,0 52.8,-23.63 52.8,-52.78" /><path
         id="path142"
         style="fill:#f6a78b;fill-opacity:1;fill-rule:nonzero;stroke:none"
         d="m 14140.7,5085.29 c -43.6,0 -78.7,-36.48 -76.4,-80.58 2.2,-41.35 39.3,-72.36 80.7,-72.36 h 153.2 v 58.69 c 0,52.05 -42.2,94.25 -94.3,94.25 h -63.2" /><path
         id="path144"
         style="fill:#39393a;fill-opacity:1;fill-rule:nonzero;stroke:none"
         d="m 13960,6037.44 c 0,-10.07 -8.1,-18.22 -18.2,-18.22 -10.1,0 -18.2,8.15 -18.2,18.22 0,10.06 8.1,18.22 18.2,18.22 10.1,0 18.2,-8.16 18.2,-18.22" /><path
         id="path146"
         style="fill:#39393a;fill-opacity:1;fill-rule:nonzero;stroke:none"
         d="m 13911.1,6037.48 c 0,-10.09 -8.2,-18.26 -18.3,-18.26 h -92 c -10,0 -18.2,8.17 -18.2,18.26 0,10.08 8.2,18.26 18.2,18.26 h 92 c 10.1,0 18.3,-8.18 18.3,-18.26" /><path
         id="path148"
         style="fill:#717879;fill-opacity:1;fill-rule:nonzero;stroke:none"
         d="m 3851.17,4171.35 c 0,-71.74 -58.15,-129.9 -129.89,-129.9 H 1665.76 c -71.74,0 -129.9,58.16 -129.9,129.9 0,71.74 58.16,129.9 129.9,129.9 h 2055.52 c 71.74,0 129.89,-58.16 129.89,-129.9" /><path
         id="path150"
         style="fill:#f6a78b;fill-opacity:1;fill-rule:nonzero;stroke:none"
         d="m 3881.74,7903.8 c 0,-112.15 90.92,-203.07 203.07,-203.07 h 11.79 c 112.15,0 203.07,90.92 203.07,203.07 0,112.15 -90.92,203.07 -203.07,203.07 h -11.79 c -112.15,0 -203.07,-90.92 -203.07,-203.07" /><path
         id="path152"
         style="fill:#3a1e15;fill-opacity:1;fill-rule:nonzero;stroke:none"
         d="m 3336.72,10772 c 175.19,-28.8 331.07,-104.2 457.17,-211.4 235.89,-200.5 367.38,-512.2 325.47,-839.03 -75.78,-418.84 -157.27,-563.16 -275.56,-688.13 -61.38,-64.85 -116.65,-134.71 -165.06,-208.71 -106.81,-163.29 -180.22,-346.77 -212.22,-541.2 l -5.68,-34.56 -5.9,0.97 c -241.75,39.79 -451.41,191.13 -507.44,403.12 -504.08,93.01 -817.88,594.28 -734.28,1102.31 l 39.31,238.84 c 84.61,514.19 570.03,862.39 1084.19,777.79" /><path
         id="path154"
         style="fill:#f6a78b;fill-opacity:1;fill-rule:nonzero;stroke:none"
         d="m 3133.12,7434.07 c 32.8,0 65.79,5.65 97.55,17.14 l 740.4,267.92 c 63.36,22.93 96.14,92.88 73.21,156.25 -22.93,63.36 -92.87,96.16 -156.25,73.21 l -643.2,-232.85 c -18.39,-6.65 -32.6,0.64 -39.4,5.61 -6.8,4.95 -18.11,16.19 -17.41,35.79 l -67.18,800.2 c 2.42,67.35 -50.21,123.9 -117.55,126.32 -67.28,2.55 -123.89,-50.21 -126.31,-117.55 l -30.02,-835.28 c -3.42,-95.25 40.52,-185.63 117.55,-241.77 49.73,-36.24 108.85,-54.98 168.61,-54.99" /><path
         id="path156"
         style="fill:#f6a78b;fill-opacity:1;fill-rule:nonzero;stroke:none"
         d="m 4118.88,7888.98 c 0,-71.88 45.07,-130.15 100.66,-130.15 55.59,0 100.66,58.27 100.66,130.15 v 57.39 c 0,71.88 -45.07,130.14 -100.66,130.14 -55.59,0 -100.66,-58.26 -100.66,-130.14 v -57.39" /><path
         id="path158"
         style="fill:#f6a78b;fill-opacity:1;fill-rule:nonzero;stroke:none"
         d="m 3829.78,7853.05 c 0,-32.94 26.71,-59.65 59.65,-59.65 32.95,0 59.65,26.71 59.65,59.65 v 163.82 c 0,32.94 -26.7,59.64 -59.65,59.64 -32.94,0 -59.65,-26.7 -59.65,-59.64 v -163.82" /><path
         id="path160"
         style="fill:#ffffff;fill-opacity:1;fill-rule:nonzero;stroke:none"
         d="m 3714.27,7917.4 183.66,979.23 c 6.26,33.32 5.28,55.15 38.22,53.6 h 30.88 324.59 l -69.39,-410.28 -118.74,-702.06 h -335.62 l 0.21,1.13 -0.21,0.03 c -36.44,6.83 -60.43,41.91 -53.6,78.35" /><path
         id="path162"
         style="fill:#ffffff;fill-opacity:1;fill-rule:nonzero;stroke:none"
         d="m 4410.01,8871.88 -183.67,-979.23 c -6.25,-33.32 -36.13,-56.16 -69.06,-54.61 l -0.03,-0.15 h -324.59 l 188.13,1112.34 h 335.62 -0.21 0.21 c 36.43,-6.83 60.43,-41.91 53.6,-78.35" /><path
         id="path164"
         style="fill:#cdccca;fill-opacity:1;fill-rule:nonzero;stroke:none"
         d="m 3700.59,7915.01 c -6.27,-36.53 18.26,-71.24 54.8,-77.51 36.54,-6.27 71.25,18.27 77.52,54.81 l 168.48,981.96 c 6.27,36.53 -18.27,69.69 -54.81,75.96 -36.54,6.27 -71.24,-16.72 -77.51,-53.26 l -168.48,-981.96" /><path
         id="path166"
         style="fill:#a1a1a0;fill-opacity:1;fill-rule:nonzero;stroke:none"
         d="m 3880.57,8427.09 c -2.7,-15.24 -17.25,-25.41 -32.5,-22.71 -15.24,2.7 -25.41,17.25 -22.71,32.49 l 18.27,103.09 55.2,-9.78 -18.26,-103.09" /><path
         id="path168"
         style="fill:#a1a1a0;fill-opacity:1;fill-rule:nonzero;stroke:none"
         d="m 3873.51,8708.58 c 2.7,15.24 17.25,25.41 32.49,22.71 15.24,-2.71 25.41,-17.25 22.71,-32.5 l -18.26,-103.08 -55.21,9.78 18.27,103.09" /><path
         id="path170"
         style="fill:#f6a78b;fill-opacity:1;fill-rule:nonzero;stroke:none"
         d="m 3741.9,8307.45 c 43.23,0 78.01,-36.17 75.72,-79.9 -2.14,-41.01 -38.95,-71.76 -80.01,-71.76 h -151.87 v 58.2 c 0,51.62 41.85,93.46 93.47,93.46 h 62.69" /><path
         id="path172"
         style="fill:#f14d24;fill-opacity:1;fill-rule:nonzero;stroke:none"
         d="m 2561.08,8723.85 h 344.29 c 103.44,0 187.29,-83.86 187.29,-187.3 V 8359.9 l 86.52,-127.12 c 73.4,-107.84 22.24,-255.94 -102.08,-295.48 l -2.51,-0.8 -82.05,-542.53 h -494.62 l -124.14,990.68 v 151.9 c 0,103.44 83.85,187.3 187.3,187.3" /><path
         id="path174"
         style="fill:#f6a78b;fill-opacity:1;fill-rule:nonzero;stroke:none"
         d="m 2885.48,10229.4 1069.86,-176 -16.56,-100.7 -131.35,-798.09 -619.97,-17.58 -446.47,214.43 144.49,877.94" /><path
         id="path176"
         style="fill:#3a1e15;fill-opacity:1;fill-rule:nonzero;stroke:none"
         d="m 3578.65,9344.37 c -8.99,-54.58 25.12,-105.63 76.16,-114.03 51.05,-8.4 99.71,29.03 108.69,83.6 8.98,54.58 -25.12,105.63 -76.17,114.03 -51.04,8.4 -99.7,-29.03 -108.68,-83.6" /><path
         id="path178"
         style="fill:#3a1e15;fill-opacity:1;fill-rule:nonzero;stroke:none"
         d="m 3086.86,9425.3 c -8.98,-54.57 25.12,-105.63 76.16,-114.03 51.05,-8.4 99.71,29.03 108.69,83.61 8.98,54.57 -25.12,105.62 -76.16,114.02 -51.05,8.4 -99.71,-29.03 -108.69,-83.6" /><path
         id="path180"
         style="fill:#bd7b68;fill-opacity:1;fill-rule:nonzero;stroke:none"
         d="m 3791.97,9485.46 -115.71,33.7 c -22.47,6.55 -16.99,39.64 4.21,39.64 1.26,0 2.58,-0.11 3.95,-0.36 1.29,-0.23 2.58,-0.53 3.86,-0.91 l 77.75,-22.64 c 20.53,-5.98 32.14,-28.11 25.94,-49.43" /><path
         id="path182"
         style="fill:#bd7b68;fill-opacity:1;fill-rule:nonzero;stroke:none"
         d="m 3246.37,9647.92 c -0.86,0.01 -1.75,0.06 -2.66,0.16 l -119.73,13.73 c 2.36,20.56 19.26,35.78 38.76,35.78 1.42,0 2.86,-0.08 4.3,-0.25 l 80.45,-9.23 c 1.33,-0.15 2.63,-0.37 3.91,-0.66 23.31,-5.2 17.44,-39.53 -5.03,-39.53" /><path
         id="path184"
         style="fill:#f6a78b;fill-opacity:1;fill-rule:nonzero;stroke:none"
         d="m 2804.7,9080.45 -47.42,369.99 325.62,-53.58 -30.08,-182.75 755.58,-53.63 -0.97,-5.87 c -50.41,-306.33 -343.99,-466.48 -664.93,-413.66 l -163.13,26.85 -8.29,-55.84 -166.38,368.49" /><path
         id="path186"
         style="fill:#3a1e15;fill-opacity:1;fill-rule:nonzero;stroke:none"
         d="m 3004.66,10693.7 1097.73,-637.9 c 0,0 -331.11,-543.39 -1641.55,8.2 l 543.82,629.7" /><path
         id="path188"
         style="fill:#131816;fill-opacity:1;fill-rule:nonzero;stroke:none"
         d="m 2964.27,4386.8 295.79,27.36 -142.85,1544.14 c -3.41,36.78 -11.2,73.03 -23.21,107.96 l -209.85,1029.72 -331.87,-133.31 237.01,-913.69 c 18.06,-43.26 29.44,-89.01 33.76,-135.69 L 2964.27,4386.8" /><path
         id="path190"
         style="fill:#1d4b48;fill-opacity:1;fill-rule:nonzero;stroke:none"
         d="M 1565.83,4688.06 2619.68,5954.7 c 69.56,86.64 104.58,195.48 98.62,306.44 l 24.35,1172.93 -416.91,-286.01 59.06,-902.88 c 2.04,-37.84 -9.91,-74.95 -33.63,-104.5 L 1334.2,4874.03 1565.83,4688.06" /><path
         id="path192"
         style="fill:#f14d24;fill-opacity:1;fill-rule:nonzero;stroke:none"
         d="m 2515.46,7549.79 4.61,149.01 523.84,34.84 45.77,-1275.33 -910.41,90.39 v 330.1 c 0,262.68 123.22,510.15 332.83,668.46 l 3.36,2.53" /><path
         id="path194"
         style="fill:#2d1913;fill-opacity:1;fill-rule:nonzero;stroke:none"
         d="m 3321.1,4586.55 -283.68,-53.06 -89.8,240.82 h -62.35 l -51.94,-577.43 h 128.57 l 24.5,121.81 61.23,-121.81 h 639.16 v 38.63 c 0,169.4 -41.73,189.44 -91.25,186.58 l -97.77,-5.65 c -95.3,-5.51 -176.67,170.11 -176.67,170.11" /><path
         id="path196"
         style="fill:#2d1913;fill-opacity:1;fill-rule:nonzero;stroke:none"
         d="m 3171.32,5654.08 76.19,-922.49 73.59,-145.04 -288.56,-78.09 -158.89,136.64 -77.86,984.49 375.53,24.49" /><path
         id="path198"
         style="fill:#3a1e15;fill-opacity:1;fill-rule:nonzero;stroke:none"
         d="m 1803.09,4787.13 -244.1,153.98 97.9,237.65 -45.71,42.39 -430.71,-388.09 94.28,-87.43 100.78,72.67 -37.92,-130.95 468.67,-434.6 26.27,28.33 c 115.18,124.21 98.2,167.28 59.94,198.86 l -75.52,62.33 c -73.62,60.76 -13.88,244.86 -13.88,244.86" /><path
         id="path200"
         style="fill:#3a1e15;fill-opacity:1;fill-rule:nonzero;stroke:none"
         d="m 2419.12,5671.76 -571.37,-728.23 -44.66,-156.4 -264.7,138.95 -23.59,208.23 612.31,774.83 292.01,-237.38" /><path
         id="path202"
         style="fill:#f6a78b;fill-opacity:1;fill-rule:nonzero;stroke:none"
         d="m 2731.86,7592.28 c 42.14,0 84.52,7.94 125.25,24.01 l 863.68,340.52 c 62.12,24.48 92.62,94.69 68.13,156.8 -24.49,62.12 -94.69,92.62 -156.81,68.13 l -863.68,-340.52 c -28.91,-11.39 -60.71,-8.66 -87.26,7.49 -26.54,16.16 -43.57,43.16 -46.72,74.07 l -67.87,666.11 c -6.78,66.42 -66.12,114.79 -132.53,108.01 -66.43,-6.77 -114.78,-66.1 -108.02,-132.52 l 67.88,-666.11 c 10.88,-106.87 69.77,-200.22 161.53,-256.08 54.37,-33.1 115.14,-49.91 176.42,-49.91" /><path
         id="path204"
         style="fill:#f6a78b;fill-opacity:1;fill-rule:nonzero;stroke:none"
         d="m 3972.69,7879.34 c 0,-80.47 65.23,-145.7 145.7,-145.7 h 27.94 c 80.46,0 145.69,65.23 145.69,145.7 0,80.47 -65.23,145.7 -145.69,145.7 h -27.94 c -80.47,0 -145.7,-65.23 -145.7,-145.7" /><path
         id="path206"
         style="fill:#f6a78b;fill-opacity:1;fill-rule:nonzero;stroke:none"
         d="m 4229.14,8025.04 c 12.77,0 23.74,9.1 26.1,21.66 l 0.04,0.21 30.08,-97.49 -127.89,-31.75 -25.11,107.37 h 96.78" /><path
         id="path208"
         style="fill:#f6a78b;fill-opacity:1;fill-rule:nonzero;stroke:none"
         d="m 3608.76,8144.63 c 0,-112.15 90.92,-203.07 203.07,-203.07 h 11.79 c 112.16,0 203.07,90.92 203.07,203.07 0,112.15 -90.91,203.07 -203.07,203.07 h -11.79 c -112.15,0 -203.07,-90.92 -203.07,-203.07" /><path
         id="path210"
         style="fill:#a1a1a0;fill-opacity:1;fill-rule:nonzero;stroke:none"
         d="m 4285.36,8853.05 c 0,-24.05 19.5,-43.54 43.54,-43.54 24.05,0 43.54,19.49 43.54,43.54 0,24.04 -19.49,43.53 -43.54,43.53 -24.04,0 -43.54,-19.49 -43.54,-43.53" /><path
         id="path212"
         style="fill:#cdccca;fill-opacity:1;fill-rule:nonzero;stroke:none"
         d="m 3972.69,8731.72 h 411.03 l 7.69,41.01 h -418.72 v -41.01" /><path
         id="path214"
         style="fill:#f48468;fill-opacity:1;fill-rule:nonzero;stroke:none"
         d="m 3527.93,9381.68 66.94,-330.65 c -12.36,2.03 -209.46,34.47 -209.46,34.47 l 51.22,311.21 91.3,-15.03" /><path
         id="path216"
         style="fill:#f6a78b;fill-opacity:1;fill-rule:nonzero;stroke:none"
         d="m 3527.93,9381.68 97.28,-335.65 -62.38,10.27 -60.46,329.59 25.56,-4.21" /><path
         id="path218"
         style="fill:#3a1e15;fill-opacity:1;fill-rule:nonzero;stroke:none"
         d="m 2769.32,10214.7 -28.33,-745.95 c 0,0 804.61,71.25 1214.35,474.58 l -1186.02,271.37" /><path
         id="path220"
         style="fill:#f6a78b;fill-opacity:1;fill-rule:nonzero;stroke:none"
         d="m 2968.83,8699.69 c -10.42,-56.78 -64.9,-94.35 -121.67,-83.93 -56.78,10.43 -94.35,64.9 -83.93,121.68 l 59.9,326.24 c 10.42,56.77 64.9,94.35 121.67,83.92 56.78,-10.42 94.35,-64.89 83.93,-121.67 l -59.9,-326.24" /><path
         id="path222"
         style="fill:#3a1e15;fill-opacity:1;fill-rule:nonzero;stroke:none"
         d="m 2926.25,8231.62 c -132.83,162.48 -167.75,363.86 -130.9,560.92 l 51.43,356.8 -618.61,694.93 -114.58,-695.12 c -61.79,-374.78 149.45,-745.08 507.35,-872.3 35.28,-12.54 305.31,-45.23 305.31,-45.23" /><path
         id="path224"
         style="fill:#f6a78b;fill-opacity:1;fill-rule:nonzero;stroke:none"
         d="m 2781.01,9524.86 c -127.85,18.02 -246.1,-71.02 -264.11,-198.87 -18.02,-127.85 71.02,-246.1 198.87,-264.12 43.73,-6.16 86.33,0.21 124.19,16.37 l 55.88,396.57 c -31.92,25.99 -71.1,43.89 -114.83,50.05" /><path
         id="path226"
         style="fill:#ffffff;fill-opacity:1;fill-rule:nonzero;stroke:none"
         d="m 3179.4,9051.03 c -15.19,-101.12 54.47,-195.42 155.59,-210.61 101.13,-15.19 195.42,54.48 210.61,155.6 l -366.2,55.01" /><path
         id="path228"
         style="fill:#3a1e15;fill-opacity:1;fill-rule:nonzero;stroke:none"
         d="m 4026.69,9930 h -194.03 c 0,0 78,-148.15 29.22,-444.54 L 4026.69,9930" /></g></g></svg>